<?xml version="1.0" standalone="no"?>
<!DOCTYPE svg PUBLIC "-//W3C//DTD SVG 1.1//EN" "http://www.w3.org/Graphics/SVG/1.1/DTD/svg11.dtd" >
<svg xmlns="http://www.w3.org/2000/svg">
<metadata>
This is a custom SVG webfont generated by Font Squirrel.
Copyright   : Copyright  1997 CK This Font is shareware and free to use
</metadata>
<defs>
<font id="webfontXFpdOOYC" horiz-adv-x="1047" >
<font-face units-per-em="2048" ascent="1638" descent="-410" />
<missing-glyph horiz-adv-x="855" />
<glyph unicode=" "  horiz-adv-x="855" />
<glyph unicode="&#x09;" horiz-adv-x="855" />
<glyph unicode="&#xa0;" horiz-adv-x="855" />
<glyph unicode="!" horiz-adv-x="553" d="M516 1619l-66 -1219h-312l-66 1219h444zM483 324v-324h-378v324h378z" />
<glyph unicode="&#x22;" horiz-adv-x="757" d="M89 1098l-53 273v248h306v-248l-46 -273h-207zM468 1098l-53 273v248h306v-248l-47 -273h-206z" />
<glyph unicode="#" horiz-adv-x="1283" d="M36 1061h308l84 383h189l-84 -383h355l82 383h189l-82 -383h170v-190h-206l-63 -302h269v-189h-305l-82 -380h-190l83 380h-359l-78 -380h-191l81 380h-170v189h209l63 302h-272v190zM497 871l-63 -301h356l62 301h-355z" />
<glyph unicode="$" horiz-adv-x="1121" d="M1019 1147h-404v67q0 109 -14 141t-60 32q-36 0 -55 -28.5t-19 -85.5q0 -95 36 -132t220 -149q159 -96 211.5 -143.5t92 -138t39.5 -226.5q0 -217 -102.5 -338t-313.5 -153v-152h-186v157q-162 15 -283 124t-121 379v79h404v-99q0 -160 12 -201t61 -41q39 0 60 27t21 82 q0 136 -18.5 193t-130.5 129l-155 100q-67 46 -97 70q-65 53 -114 152.5t-49 225.5q0 178 102 282t308 129v129h186v-129q185 -24 279 -126t94 -280z" />
<glyph unicode="%" horiz-adv-x="1419" d="M1103 1650l-633 -1681h-154l635 1681h152zM632 1343v-278q0 -109 -20 -162.5t-89 -96.5q-34 -20 -77 -30q-19 -4 -46 -7t-55 -3q-131 0 -195 38.5t-91 92.5q-23 55 -23 155v291q0 120 24 177t94.5 93.5t173.5 36.5q114 0 184 -39.5t95 -96.5t25 -171zM376 1414l-1 43 q0 22 -6 36.5t-35 14.5q-25 0 -35 -16q-8 -16 -8 -78v-408q0 -69 6 -83.5t38 -14.5q26 0 33.5 16t7.5 75v415zM1383 561v-279q0 -106 -20 -161t-89 -98q-34 -20 -77 -30q-19 -4 -46 -7t-55 -3q-125 0 -192 39t-94 93q-4 10 -8.5 26t-9.5 46.5t-5 81.5v292q0 116 24 173.5 t95.5 95.5t172.5 38q114 0 184 -39t95 -96t25 -172zM1127 631l-1 43q0 22 -6 37t-35 15q-25 0 -35 -16q-7 -21 -7 -79v-408q0 -68 6 -82.5t37 -14.5q25 0 34 15q7 21 7 76v414z" />
<glyph unicode="&#x26;" horiz-adv-x="1180" d="M1152 615v-273l-114 -72l142 -270h-373l-49 90q-96 -62 -183.5 -93t-172.5 -31q-173 0 -269.5 117.5t-96.5 281.5q0 133 54 206t170 123q-160 115 -160 311q0 166 114.5 270.5t313.5 104.5q180 0 283.5 -101t103.5 -257q0 -162 -126 -291l143 -258zM529 899q68 89 68 170 q0 35 -20 64t-56 29q-31 0 -50 -22q-17 -22 -17 -67q0 -93 75 -174zM620 273l-131 218q-75 -68 -75 -147q0 -57 23 -86q25 -28 70 -28q48 0 113 43z" />
<glyph unicode="'" horiz-adv-x="379" d="M89 1098l-53 273v248h306v-248l-46 -273h-207z" />
<glyph unicode="(" horiz-adv-x="642" d="M605 1619v-211q-86 0 -108 -7q-24 -6 -35.5 -32.5t-11.5 -144.5v-829q0 -109 9 -136.5t33 -38.5q24 -9 113 -9v-211h-127q-179 0 -258.5 32.5t-109.5 95.5q-26 64 -26 268v827q0 105 6 170.5t20 97.5q25 62 110 95t258 33h127z" />
<glyph unicode=")" horiz-adv-x="642" d="M36 1619h127q174 0 257 -31t110 -95.5t27 -269.5v-827q0 -105 -6 -170.5t-20 -98.5q-25 -61 -109.5 -94t-258.5 -33h-127v211q86 0 111 9t35 39t10 136v829q0 117 -12 143.5t-37 33.5l-39 5l-68 2v211z" />
<glyph unicode="*" horiz-adv-x="575" d="M352 1619v-161l148 51l45 -118l-148 -62l93 -132l-100 -74l-101 133l-99 -133l-105 74l94 137l-149 57l43 118l153 -51v161h126z" />
<glyph unicode="+" horiz-adv-x="1092" d="M64 930h359v360h244v-360h361v-244h-361v-358h-244v358h-359v244z" />
<glyph unicode="," horiz-adv-x="344" d="M307 317v-145q0 -112 -27 -184.5t-92.5 -124.5t-151.5 -70v116q57 31 68 91h-68v317h271z" />
<glyph unicode="-" horiz-adv-x="603" d="M567 803v-279h-531v279h531z" />
<glyph unicode="." horiz-adv-x="378" d="M341 330v-330h-305v330h305z" />
<glyph unicode="/" horiz-adv-x="810" d="M798 1650l-480 -1681h-306l483 1681h303z" />
<glyph unicode="0" horiz-adv-x="1098" d="M1025 1071v-540q0 -190 -20 -272t-82.5 -153.5t-153 -104t-198.5 -32.5q-142 0 -239 33t-154.5 104.5t-81.5 149.5t-24 250v565q0 112 9 195q5 45 11 76t18 63q39 110 154 177.5t277 67.5q134 0 239 -45.5t155 -112t71 -153.5q4 -20 8 -55t6 -54q0 -26 2.5 -83t2.5 -76z M621 1207q0 129 -12.5 161.5t-58.5 32.5q-45 0 -59.5 -34.5t-14.5 -159.5v-790q0 -141 13.5 -170t58.5 -29q43 0 58 33.5t15 153.5v802z" />
<glyph unicode="1" horiz-adv-x="780" d="M695 1619v-1619h-404v868q0 186 -9 225t-49.5 58.5t-180.5 19.5h-40v189q291 63 445 259h238z" />
<glyph unicode="2" horiz-adv-x="1028" d="M943 276v-276h-889v231q395 646 468 797q39 80 57.5 138.5t18.5 103.5q0 66 -23 98q-21 33 -68 33q-45 0 -69 -36q-22 -39 -22 -143v-154h-362v59l3 122q0 24 2.5 44t8.5 48q12 78 66.5 153.5t144.5 115.5q45 20 96 30t116 10q238 0 363 -119.5t125 -302.5 q0 -139 -69.5 -294t-409.5 -658h443z" />
<glyph unicode="3" horiz-adv-x="1086" d="M831 917q90 -30 136 -101t46 -331q0 -196 -43.5 -300.5t-153.5 -160.5t-276 -56q-192 0 -300.5 64t-145.5 158q-14 43 -24 126t-10 199v128h404v-263q0 -103 12 -132.5t56 -29.5t62 36q15 36 15 188v112q0 90 -21 133t-62 59q-14 5 -51.5 9.5t-54.5 5.5t-53 1v235 q147 0 178.5 10.5t47.5 48t16 116.5v90q0 82 -17.5 110.5t-54.5 28.5q-42 0 -57.5 -27.5t-15.5 -122.5v-133h-404v138q0 231 106 313t337 82q287 0 391 -113.5t104 -313.5q0 -134 -36 -195.5t-131 -111.5z" />
<glyph unicode="4" horiz-adv-x="1125" d="M950 1619v-1058h115v-276h-115v-285h-404v285h-480v276l349 1058h535zM546 561v689l-178 -689h178z" />
<glyph unicode="5" horiz-adv-x="1099" d="M954 1619v-259h-501v-275q93 111 242 111q167 0 252.5 -94t85.5 -359v-231q0 -29 -1.5 -67t-2.5 -82q0 -27 -3.5 -54t-9.5 -50q-15 -78 -69.5 -147.5t-151 -106t-235.5 -36.5q-154 0 -273 54t-170 163t-51 334v88h404v-101q0 -166 11 -227.5t76 -61.5q29 0 47 18t21 42 l4 191v321q0 91 -19 124t-63 33q-28 0 -46 -17q-17 -14 -26 -37q-5 -22 -5 -90h-400l17 816h867z" />
<glyph unicode="6" horiz-adv-x="1109" d="M1042 1189h-404v27v21v17v14q0 45 -3 63q0 27 -23 48.5t-59 21.5q-29 0 -50 -18q-18 -18 -24 -50q-3 -30 -3 -121v-258q30 62 90 96t149 34q109 0 193.5 -60t110.5 -144q4 -15 8.5 -41t9.5 -70t5 -116v-129l-3 -147q0 -28 -2.5 -52t-7.5 -54q-12 -82 -68 -151.5 t-155.5 -110t-230.5 -40.5q-163 0 -265 44t-160 128t-68 178t-10 363v224q0 307 8.5 395t68 174.5t167.5 131.5q53 21 114 32.5t130 11.5q170 0 279 -54.5t156 -155t47 -252.5zM638 684q0 86 -18.5 118t-62.5 32q-40 0 -62 -31q-19 -33 -19 -119v-293q0 -104 18.5 -138.5 t61.5 -34.5q26 0 54 25.5t28 137.5v303z" />
<glyph unicode="7" horiz-adv-x="918" d="M847 1619v-353l-258 -1266h-402l287 1328h-399v291h772z" />
<glyph unicode="8" horiz-adv-x="1095" d="M843 918q87 -35 136 -108t49 -340q0 -98 -9 -170t-29 -119q-38 -93 -148 -152.5t-295 -59.5q-180 0 -284.5 57t-150.5 150t-46 314q0 151 21.5 256t142.5 172q-73 34 -111.5 114.5t-38.5 199.5q0 209 116 313.5t347 104.5q267 0 369 -111t102 -317q0 -131 -33.5 -188.5 t-137.5 -115.5zM616 1266q0 81 -14.5 108t-55.5 27q-39 0 -53.5 -28.5t-14.5 -106.5v-123q0 -72 16 -100.5t54 -28.5t53 27t15 114v111zM624 593q0 93 -18.5 123.5t-60.5 30.5q-37 0 -58 -30q-17 -29 -17 -124v-210q0 -105 19 -136q20 -29 62 -29q40 0 58 30q15 30 15 138 v207z" />
<glyph unicode="9" horiz-adv-x="1109" d="M72 430h404q0 -111 3 -141t24.5 -50.5t58.5 -20.5q29 0 48.5 17.5t24.5 49.5q3 30 3 122v258q-28 -62 -90 -98q-61 -32 -149 -32q-109 0 -193.5 60t-110.5 144q-4 15 -8.5 41t-9.5 70t-5 116v129l3 147q0 28 2.5 52t7.5 54q14 83 69 152.5t155 109.5q51 20 107 30t124 10 q160 0 264 -45t161 -129t67 -177.5t10 -360.5v-225q0 -308 -8 -387q0 -44 -17.5 -90t-52.5 -94q-58 -84 -166 -131q-24 -10 -52.5 -18t-58.5 -13.5t-63.5 -8.5t-68.5 -3q-170 0 -279.5 54t-156.5 155.5t-47 252.5zM476 935q0 -102 26 -127q13 -11 27 -17t28 -6 q40 0 60.5 30.5t20.5 119.5v293q0 105 -19 139t-61 34q-14 0 -27 -6t-28 -20q-27 -24 -27 -137v-303z" />
<glyph unicode=":" horiz-adv-x="414" d="M377 1054v-329h-305v329h305zM377 330v-330h-305v330h305z" />
<glyph unicode=";" horiz-adv-x="414" d="M377 1054v-329h-305v329h305zM360 317v-145q0 -112 -27 -184.5t-92.5 -124.5t-151.5 -70v116q57 31 68 91h-68v317h271z" />
<glyph unicode="&#x3c;" horiz-adv-x="1092" d="M1027 324l-962 401v203l962 402v-264l-594 -239l594 -238v-265z" />
<glyph unicode="=" horiz-adv-x="1092" d="M65 1122h962v-244h-962v244zM65 740h962v-244h-962v244z" />
<glyph unicode="&#x3e;" horiz-adv-x="1092" d="M65 1330l962 -400v-204l-962 -402v264l594 239l-594 238v265z" />
<glyph unicode="?" horiz-adv-x="1075" d="M488 1097h-404q0 108 9 182t27 129q33 98 147.5 171.5t289.5 73.5q126 0 220.5 -39.5t150.5 -110.5t83 -155.5t27 -260.5v-198q0 -136 -24.5 -217t-109.5 -143.5t-197 -62.5q-147 0 -219 115v-174h-377v445h368q0 -92 66 -92q50 0 63.5 41.5t13.5 197.5v269 q0 89 -12.5 119.5t-49.5 30.5q-43 0 -59 -41q-13 -46 -13 -182v-98zM488 324v-324h-377v324h377z" />
<glyph unicode="@" horiz-adv-x="1587" d="M1193 1308l-127 -792l-4 -35q0 -39 37 -39q58 0 129.5 57t124 171.5t52.5 263.5q0 255 -153.5 412.5t-402.5 157.5q-289 0 -477 -199.5t-188 -532.5q0 -321 183 -509.5t468 -188.5q143 0 267.5 47t237.5 140h210q-127 -163 -322.5 -249.5t-391.5 -86.5q-340 0 -570 231.5 t-230 606.5q0 371 213 631q107 129 255.5 194t340.5 65q225 0 369.5 -87.5t241.5 -245.5t97 -386q0 -304 -171 -482t-343 -178q-129 0 -157 116q-65 -62 -117 -91q-52 -26 -119 -26q-147 0 -238 116t-91 310q0 252 125.5 445.5t305.5 193.5q69 0 126.5 -35t104.5 -109 l16 114h198zM525 642q0 -93 39 -158.5t108 -65.5q63 0 111.5 49.5t93.5 210.5q21 80 32 155.5t11 147.5q0 45 -9 81.5t-29 63.5q-38 56 -103 56q-119 0 -186.5 -171.5t-67.5 -368.5z" />
<glyph unicode="A" horiz-adv-x="1032" d="M433 976h-379v106q0 103 7.5 167.5t27.5 117.5q36 101 143 177.5t278 76.5q203 0 307 -86t126 -216t22 -520v-799h-393v142q-35 -83 -95.5 -127t-139.5 -44q-105 0 -194 72.5t-89 311.5v131q0 178 45.5 242t234.5 153q197 92 212 125.5t15 132.5q0 127 -16 162 q-15 38 -51 38q-39 0 -51 -32q-10 -38 -10 -165v-166zM561 757q-94 -82 -112 -142q-8 -31 -12 -69.5t-4 -96.5q0 -124 13.5 -160t53.5 -36q36 0 48.5 28.5t12.5 148.5v327z" />
<glyph unicode="B" horiz-adv-x="1131" d="M84 1619h420q200 0 301 -30.5t165 -125t64 -305.5q0 -141 -44 -196t-176 -88q146 -33 198 -109.5t52 -234.5v-150q0 -166 -36 -242.5t-119.5 -107t-337.5 -30.5h-487v1619zM505 1342v-360l42 1q60 0 78 30t18 175q0 39 -3 65t-11 41q-14 30 -38 39t-86 9zM505 730v-453 q47 0 72.5 6.5t40.5 21.5q25 25 25 123v151q0 104 -22 126q-12 12 -33.5 16.5t-40 6.5t-42.5 2z" />
<glyph unicode="C" horiz-adv-x="1013" d="M965 991h-381v184q0 97 -13 129q-12 35 -48 35q-32 0 -47 -30q-12 -29 -12 -134v-751q0 -84 18 -127.5t53 -43.5q39 0 54.5 43.5t15.5 169.5v189h360q0 -197 -10 -289t-67.5 -192t-148 -151.5t-225.5 -51.5q-171 0 -270.5 70.5t-141.5 197t-42 359.5v452q0 110 8 177 q4 37 10 69t16 60q33 103 144.5 184t270.5 81t269 -78.5t148.5 -205t38.5 -346.5z" />
<glyph unicode="D" horiz-adv-x="1132" d="M84 1619h315q307 0 413.5 -27.5t161.5 -90.5t70 -144.5t15 -308.5v-567q0 -216 -20.5 -289.5t-70 -114.5t-127.5 -61q-40 -8 -42 -8q-25 -4 -51 -4l-133 -4h-531v1619zM505 1342v-1065q88 0 112 36q21 36 21 199v629q0 113 -6.5 142.5t-32.5 43.5q-24 15 -94 15z" />
<glyph unicode="E" d="M987 768h-523v-344q0 -107 12 -139t51 -32q45 0 61 41q8 21 12 59l4 102v210h383v-118q0 -152 -15.5 -228.5t-72 -166t-146.5 -135.5t-218 -46q-127 0 -225.5 43.5t-153 121t-75.5 172t-21 270.5v465q0 210 46 329t153 184t248 65q85 0 155 -18.5t125 -59.5 q108 -73 154 -203t46 -361v-211zM582 1027v117q0 127 -11 161t-45 34q-42 0 -52 -32.5t-10 -162.5v-117h118z" />
<glyph unicode="F" horiz-adv-x="711" d="M641 1619v-205q-123 0 -146.5 -11.5t-23.5 -65.5v-42h170v-210h-96v-1085h-404v1085h-83v210h83q0 128 9 174.5t43.5 78.5t99.5 52q32 9 81.5 14t118.5 5h148z" />
<glyph unicode="G" horiz-adv-x="1062" d="M990 1592v-1226q0 -253 -9.5 -323.5t-66.5 -150t-163 -124.5q-22 -9 -52 -17.5t-64 -14.5q-66 -11 -144 -11q-189 0 -310 79q-59 39 -90 115.5t-31 193.5h392q0 -106 64 -106q44 0 60 33.5t16 134.5v120q-51 -54 -109.5 -84t-120.5 -30q-109 0 -179 53t-97 138 q-11 38 -19 104q-3 33 -5 67t-2 74v578q0 225 68 325.5t207 100.5q76 0 138.5 -36.5t111.5 -112.5l29 120h376zM585 1170q0 111 -11 139q-9 30 -46 30q-33 0 -48.5 -33.5t-15.5 -135.5v-535q0 -110 11 -140.5t46 -30.5q39 0 51.5 40t12.5 173v493z" />
<glyph unicode="H" horiz-adv-x="1137" d="M1052 1619v-1619h-421v680h-126v-680h-421v1619h421v-579h126v579h421z" />
<glyph unicode="I" horiz-adv-x="561" d="M488 1619v-211h-416v211h416zM488 1327v-1327h-416v1327h416z" />
<glyph unicode="J" horiz-adv-x="573" d="M500 1619v-211h-416v211h416zM500 1327v-1050q0 -196 -8 -251q-6 -63 -44 -111.5t-104 -74.5t-194 -26h-156v212q72 0 81 15t9 201v1085h416z" />
<glyph unicode="K" horiz-adv-x="1179" d="M1087 1619l-241 -731l264 -888h-435l-170 694v-694h-421v1619h421v-629l187 629h395z" />
<glyph unicode="L" horiz-adv-x="837" d="M505 1619v-1295h256v-324h-677v1619h421z" />
<glyph unicode="M" horiz-adv-x="1579" d="M471 1592l-7 -151q47 91 112 135.5t148 44.5q162 0 255 -180q51 90 114 135t143 45q102 0 169 -59t88 -148q6 -26 10 -54.5t4 -59.5q0 -29 2.5 -89t2.5 -79v-1132h-392v1038q0 204 -11.5 252.5t-53.5 48.5q-39 0 -56 -48q-12 -47 -12 -253v-1038h-392v1012q0 237 -10 280 q-9 47 -52 47q-27 0 -46 -25l-16 -28q-5 -13 -5 -32l-2 -150v-1104h-392v1592h399z" />
<glyph unicode="N" horiz-adv-x="1071" d="M483 1592l-7 -146q42 87 106.5 131t147.5 44q103 0 169.5 -57.5t85.5 -149.5q5 -26 9.5 -55.5t4.5 -62.5q0 -29 2.5 -93.5t2.5 -86.5v-1116h-404v1103q0 161 -9 198.5t-50 37.5q-42 0 -53.5 -42t-11.5 -221v-1076h-404v1592h411z" />
<glyph unicode="O" d="M986 1033v-390q0 -213 -18 -315.5t-75.5 -186.5t-153.5 -129q-45 -20 -100 -30q-24 -5 -53 -8t-59 -3q-138 0 -229.5 35.5t-142 106t-73 176.5t-22.5 301v408q0 221 39 344.5t144.5 201t266.5 77.5q71 0 126.5 -11.5t106.5 -37.5q96 -45 149.5 -124t73.5 -165 q10 -42 15 -102t5 -148zM582 1153q0 125 -11 155.5t-47 30.5t-48 -32t-12 -154v-719q0 -110 12 -145.5t47 -35.5q34 0 46.5 31.5t12.5 134.5v734z" />
<glyph unicode="P" horiz-adv-x="1063" d="M483 1592l-7 -140q55 85 120 127t141 42q93 0 161 -59.5t86 -141t18 -268.5v-671q0 -112 -5 -186t-17 -122q-21 -89 -88 -145.5t-160 -56.5q-39 0 -73.5 10t-65.5 32q-64 43 -117 125v-365h-404v1819h411zM598 1129q0 145 -9 177.5t-50 32.5q-37 0 -52 -36 q-11 -39 -11 -174v-660q0 -144 12 -180t52 -36q39 0 48.5 35.5t9.5 157.5v683z" />
<glyph unicode="Q" horiz-adv-x="1061" d="M988 1592v-1819h-404v355q-59 -102 -109 -129q-24 -14 -55.5 -21t-66.5 -7q-104 0 -174.5 60t-94.5 155.5t-24 292.5v702q0 160 18 239t87 140t162 61q75 0 138.5 -39.5t118.5 -124.5l7 135h397zM584 1159q0 108 -14 143q-12 37 -48 37q-31 0 -46 -32q-12 -33 -12 -148 v-709q0 -126 12 -161.5t49 -35.5q33 0 46 37t13 153v716z" />
<glyph unicode="R" horiz-adv-x="774" d="M476 1592l-16 -208q46 116 107 174q66 63 148 63v-560q-109 0 -161 -35t-65 -102t-13 -295v-629h-404v1592h404z" />
<glyph unicode="S" horiz-adv-x="999" d="M915 1093h-358v86q0 113 -11 139q-9 30 -52 30q-33 0 -50.5 -26.5t-17.5 -81.5q0 -79 8.5 -109t49.5 -71t176 -121q173 -102 229.5 -194t56.5 -266q0 -191 -42 -291t-140.5 -154t-237.5 -54q-152 0 -261.5 57t-151.5 157t-42 297v77h358v-101q0 -128 13.5 -166.5 t53.5 -38.5q41 0 60 25q17 26 17 110q0 113 -21.5 141t-235.5 172q-176 117 -216 216t-40 234q0 190 42 280t142 141q48 23 111 36t123 13q132 0 223.5 -39.5t142 -105t60.5 -124.5q5 -26 8 -71t3 -105v-92z" />
<glyph unicode="T" horiz-adv-x="1080" d="M1004 1619v-324h-250v-1295h-421v1295h-249v324h920z" />
<glyph unicode="U" horiz-adv-x="1070" d="M997 1592v-1592h-411l7 132q-41 -77 -102.5 -119t-142.5 -42q-46 0 -83 9.5t-68 29.5q-59 36 -87 99t-37 135l-5 102l-2 172v1074h404v-1083q0 -183 9 -219.5t52 -36.5q42 0 53 36q9 36 9 232v1071h404z" />
<glyph unicode="V" horiz-adv-x="1053" d="M988 1592l-189 -1592h-527l-203 1592h361l113 -1161l31 301q0 52 4 125q9 164 9 198q0 124 13 261l27 276h361z" />
<glyph unicode="W" horiz-adv-x="1512" d="M1449 1592l-161 -1592h-439l-25 214l-26 237l-32 317q0 -68 -7 -134q-3 -34 -7 -69.5t-10 -73.5l-21 -145l-45 -346h-439l-171 1592h348l88 -910l90 910h335l82 -910q0 49 3 100q9 154 9 177q0 58 15 168l19 135l46 330h348z" />
<glyph unicode="X" horiz-adv-x="1053" d="M953 1601l-161 -760l195 -832h-393l-35 199l-29 180l-24 162q-39 -277 -87 -541h-338l174 832l-174 760h338q81 -488 87 -553q58 416 88 553h359z" />
<glyph unicode="Y" horiz-adv-x="1071" d="M1008 1592l-116 -1152q-13 -140 -25 -231.5t-21 -141.5q-18 -99 -60 -163t-121 -96q-39 -15 -99.5 -23t-144.5 -8h-245v254q91 0 119.5 11t28.5 52q0 22 -25 166l-221 1332h367l132 -1074l64 1074h367z" />
<glyph unicode="Z" horiz-adv-x="837" d="M764 1592v-352l-298 -921h298v-319h-689v334l305 939h-274v319h658z" />
<glyph unicode="[" horiz-adv-x="578" d="M541 1619v-249h-91v-1121h91v-249h-457v1619h457z" />
<glyph unicode="\" horiz-adv-x="810" d="M12 1650h303l483 -1681h-305z" />
<glyph unicode="]" horiz-adv-x="578" d="M36 0v249h91v1121h-91v249h457v-1619h-457z" />
<glyph unicode="^" horiz-adv-x="990" d="M12 820l376 799h223l366 -799h-284l-198 489l-197 -489h-286z" />
<glyph unicode="_" horiz-adv-x="1131" d="M-12 -154h1155v-102h-1155v102z" />
<glyph unicode="`" horiz-adv-x="683" d="M0 1772h356l176 -271h-203z" />
<glyph unicode="a" horiz-adv-x="1032" d="M433 976h-379v106q0 103 7.5 167.5t27.5 117.5q36 101 143 177.5t278 76.5q203 0 307 -86t126 -216t22 -520v-799h-393v142q-35 -83 -95.5 -127t-139.5 -44q-105 0 -194 72.5t-89 311.5v131q0 178 45.5 242t234.5 153q197 92 212 125.5t15 132.5q0 127 -16 162 q-15 38 -51 38q-39 0 -51 -32q-10 -38 -10 -165v-166zM561 757q-94 -82 -112 -142q-8 -31 -12 -69.5t-4 -96.5q0 -124 13.5 -160t53.5 -36q36 0 48.5 28.5t12.5 148.5v327z" />
<glyph unicode="b" horiz-adv-x="1131" d="M84 1619h420q200 0 301 -30.5t165 -125t64 -305.5q0 -141 -44 -196t-176 -88q146 -33 198 -109.5t52 -234.5v-150q0 -166 -36 -242.5t-119.5 -107t-337.5 -30.5h-487v1619zM505 1342v-360l42 1q60 0 78 30t18 175q0 39 -3 65t-11 41q-14 30 -38 39t-86 9zM505 730v-453 q47 0 72.5 6.5t40.5 21.5q25 25 25 123v151q0 104 -22 126q-12 12 -33.5 16.5t-40 6.5t-42.5 2z" />
<glyph unicode="c" horiz-adv-x="1013" d="M965 991h-381v184q0 97 -13 129q-12 35 -48 35q-32 0 -47 -30q-12 -29 -12 -134v-751q0 -84 18 -127.5t53 -43.5q39 0 54.5 43.5t15.5 169.5v189h360q0 -197 -10 -289t-67.5 -192t-148 -151.5t-225.5 -51.5q-171 0 -270.5 70.5t-141.5 197t-42 359.5v452q0 110 8 177 q4 37 10 69t16 60q33 103 144.5 184t270.5 81t269 -78.5t148.5 -205t38.5 -346.5z" />
<glyph unicode="d" horiz-adv-x="1132" d="M84 1619h315q307 0 413.5 -27.5t161.5 -90.5t70 -144.5t15 -308.5v-567q0 -216 -20.5 -289.5t-70 -114.5t-127.5 -61q-40 -8 -42 -8q-25 -4 -51 -4l-133 -4h-531v1619zM505 1342v-1065q88 0 112 36q21 36 21 199v629q0 113 -6.5 142.5t-32.5 43.5q-24 15 -94 15z" />
<glyph unicode="e" d="M987 768h-523v-344q0 -107 12 -139t51 -32q45 0 61 41q8 21 12 59l4 102v210h383v-118q0 -152 -15.5 -228.5t-72 -166t-146.5 -135.5t-218 -46q-127 0 -225.5 43.5t-153 121t-75.5 172t-21 270.5v465q0 210 46 329t153 184t248 65q85 0 155 -18.5t125 -59.5 q108 -73 154 -203t46 -361v-211zM582 1027v117q0 127 -11 161t-45 34q-42 0 -52 -32.5t-10 -162.5v-117h118z" />
<glyph unicode="f" horiz-adv-x="711" d="M641 1619v-205q-123 0 -146.5 -11.5t-23.5 -65.5v-42h170v-210h-96v-1085h-404v1085h-83v210h83q0 128 9 174.5t43.5 78.5t99.5 52q32 9 81.5 14t118.5 5h148z" />
<glyph unicode="g" horiz-adv-x="1062" d="M990 1592v-1226q0 -253 -9.5 -323.5t-66.5 -150t-163 -124.5q-22 -9 -52 -17.5t-64 -14.5q-66 -11 -144 -11q-189 0 -310 79q-59 39 -90 115.5t-31 193.5h392q0 -106 64 -106q44 0 60 33.5t16 134.5v120q-51 -54 -109.5 -84t-120.5 -30q-109 0 -179 53t-97 138 q-11 38 -19 104q-3 33 -5 67t-2 74v578q0 225 68 325.5t207 100.5q76 0 138.5 -36.5t111.5 -112.5l29 120h376zM585 1170q0 111 -11 139q-9 30 -46 30q-33 0 -48.5 -33.5t-15.5 -135.5v-535q0 -110 11 -140.5t46 -30.5q39 0 51.5 40t12.5 173v493z" />
<glyph unicode="h" horiz-adv-x="1137" d="M1052 1619v-1619h-421v680h-126v-680h-421v1619h421v-579h126v579h421z" />
<glyph unicode="i" horiz-adv-x="561" d="M488 1619v-211h-416v211h416zM488 1327v-1327h-416v1327h416z" />
<glyph unicode="j" horiz-adv-x="573" d="M500 1619v-211h-416v211h416zM500 1327v-1050q0 -196 -8 -251q-6 -63 -44 -111.5t-104 -74.5t-194 -26h-156v212q72 0 81 15t9 201v1085h416z" />
<glyph unicode="k" horiz-adv-x="1179" d="M1087 1619l-241 -731l264 -888h-435l-170 694v-694h-421v1619h421v-629l187 629h395z" />
<glyph unicode="l" horiz-adv-x="837" d="M505 1619v-1295h256v-324h-677v1619h421z" />
<glyph unicode="m" horiz-adv-x="1579" d="M471 1592l-7 -151q47 91 112 135.5t148 44.5q162 0 255 -180q51 90 114 135t143 45q102 0 169 -59t88 -148q6 -26 10 -54.5t4 -59.5q0 -29 2.5 -89t2.5 -79v-1132h-392v1038q0 204 -11.5 252.5t-53.5 48.5q-39 0 -56 -48q-12 -47 -12 -253v-1038h-392v1012q0 237 -10 280 q-9 47 -52 47q-27 0 -46 -25l-16 -28q-5 -13 -5 -32l-2 -150v-1104h-392v1592h399z" />
<glyph unicode="n" horiz-adv-x="1071" d="M483 1592l-7 -146q42 87 106.5 131t147.5 44q103 0 169.5 -57.5t85.5 -149.5q5 -26 9.5 -55.5t4.5 -62.5q0 -29 2.5 -93.5t2.5 -86.5v-1116h-404v1103q0 161 -9 198.5t-50 37.5q-42 0 -53.5 -42t-11.5 -221v-1076h-404v1592h411z" />
<glyph unicode="o" d="M986 1033v-390q0 -213 -18 -315.5t-75.5 -186.5t-153.5 -129q-45 -20 -100 -30q-24 -5 -53 -8t-59 -3q-138 0 -229.5 35.5t-142 106t-73 176.5t-22.5 301v408q0 221 39 344.5t144.5 201t266.5 77.5q71 0 126.5 -11.5t106.5 -37.5q96 -45 149.5 -124t73.5 -165 q10 -42 15 -102t5 -148zM582 1153q0 125 -11 155.5t-47 30.5t-48 -32t-12 -154v-719q0 -110 12 -145.5t47 -35.5q34 0 46.5 31.5t12.5 134.5v734z" />
<glyph unicode="p" horiz-adv-x="1063" d="M483 1592l-7 -140q55 85 120 127t141 42q93 0 161 -59.5t86 -141t18 -268.5v-671q0 -112 -5 -186t-17 -122q-21 -89 -88 -145.5t-160 -56.5q-39 0 -73.5 10t-65.5 32q-64 43 -117 125v-365h-404v1819h411zM598 1129q0 145 -9 177.5t-50 32.5q-37 0 -52 -36 q-11 -39 -11 -174v-660q0 -144 12 -180t52 -36q39 0 48.5 35.5t9.5 157.5v683z" />
<glyph unicode="q" horiz-adv-x="1061" d="M988 1592v-1819h-404v355q-59 -102 -109 -129q-24 -14 -55.5 -21t-66.5 -7q-104 0 -174.5 60t-94.5 155.5t-24 292.5v702q0 160 18 239t87 140t162 61q75 0 138.5 -39.5t118.5 -124.5l7 135h397zM584 1159q0 108 -14 143q-12 37 -48 37q-31 0 -46 -32q-12 -33 -12 -148 v-709q0 -126 12 -161.5t49 -35.5q33 0 46 37t13 153v716z" />
<glyph unicode="r" horiz-adv-x="774" d="M476 1592l-16 -208q46 116 107 174q66 63 148 63v-560q-109 0 -161 -35t-65 -102t-13 -295v-629h-404v1592h404z" />
<glyph unicode="s" horiz-adv-x="999" d="M915 1093h-358v86q0 113 -11 139q-9 30 -52 30q-33 0 -50.5 -26.5t-17.5 -81.5q0 -79 8.5 -109t49.5 -71t176 -121q173 -102 229.5 -194t56.5 -266q0 -191 -42 -291t-140.5 -154t-237.5 -54q-152 0 -261.5 57t-151.5 157t-42 297v77h358v-101q0 -128 13.5 -166.5 t53.5 -38.5q41 0 60 25q17 26 17 110q0 113 -21.5 141t-235.5 172q-176 117 -216 216t-40 234q0 190 42 280t142 141q48 23 111 36t123 13q132 0 223.5 -39.5t142 -105t60.5 -124.5q5 -26 8 -71t3 -105v-92z" />
<glyph unicode="t" horiz-adv-x="1080" d="M1004 1619v-324h-250v-1295h-421v1295h-249v324h920z" />
<glyph unicode="u" horiz-adv-x="1070" d="M997 1592v-1592h-411l7 132q-41 -77 -102.5 -119t-142.5 -42q-46 0 -83 9.5t-68 29.5q-59 36 -87 99t-37 135l-5 102l-2 172v1074h404v-1083q0 -183 9 -219.5t52 -36.5q42 0 53 36q9 36 9 232v1071h404z" />
<glyph unicode="v" horiz-adv-x="1053" d="M988 1592l-189 -1592h-527l-203 1592h361l113 -1161l31 301q0 52 4 125q9 164 9 198q0 124 13 261l27 276h361z" />
<glyph unicode="w" horiz-adv-x="1512" d="M1449 1592l-161 -1592h-439l-25 214l-26 237l-32 317q0 -68 -7 -134q-3 -34 -7 -69.5t-10 -73.5l-21 -145l-45 -346h-439l-171 1592h348l88 -910l90 910h335l82 -910q0 49 3 100q9 154 9 177q0 58 15 168l19 135l46 330h348z" />
<glyph unicode="x" horiz-adv-x="1053" d="M953 1601l-161 -760l195 -832h-393l-35 199l-29 180l-24 162q-39 -277 -87 -541h-338l174 832l-174 760h338q81 -488 87 -553q58 416 88 553h359z" />
<glyph unicode="y" horiz-adv-x="1071" d="M1008 1592l-116 -1152q-13 -140 -25 -231.5t-21 -141.5q-18 -99 -60 -163t-121 -96q-39 -15 -99.5 -23t-144.5 -8h-245v254q91 0 119.5 11t28.5 52q0 22 -25 166l-221 1332h367l132 -1074l64 1074h367z" />
<glyph unicode="z" horiz-adv-x="837" d="M764 1592v-352l-298 -921h298v-319h-689v334l305 939h-274v319h658z" />
<glyph unicode="{" horiz-adv-x="757" d="M36 538v240q106 0 162.5 64t56.5 286q0 165 12 246.5t60 138t127 81.5t213 25h53v-239q-144 0 -174 -30q-30 -33 -30 -117q0 -51 -2.5 -119t-2.5 -71q0 -39 -2 -59.5t-9.5 -77.5t-41 -120.5t-130.5 -127.5q89 -54 129 -129q20 -36 34 -95t14 -121l15 -291q9 -42 44 -63.5 t155 -21.5v-240h-52q-159 0 -247.5 36.5t-126.5 120t-38 267.5q0 53 -1 93l-2 76q0 30 -3 51.5t-8 40.5q-12 54 -54 104q-19 23 -58 37.5t-93 14.5z" />
<glyph unicode="|" horiz-adv-x="555" d="M169 1619h217v-1884h-217v1884z" />
<glyph unicode="}" horiz-adv-x="757" d="M720 538q-108 0 -163.5 -64.5t-55.5 -284.5q0 -168 -12 -248.5t-60 -137t-126.5 -81.5t-212.5 -25h-53v240q138 0 170 29q15 14 24.5 43t9.5 75q0 49 2.5 120t2.5 79q0 39 5 75l7 50q6 42 19 73q13 36 32 67q36 61 119 110q-88 56 -119.5 109t-46.5 118l-13 98 q0 23 -2.5 72.5t-2.5 65.5v21v17v14v12q0 14 -0.5 30.5t-3.5 38.5q0 23 -3 38.5t-8 28.5q-6 21 -37.5 40t-155.5 19v239h53q160 0 247.5 -36.5t126 -119.5t38.5 -268q0 -209 15 -265t55 -103q20 -23 57 -37q36 -12 92 -12v-240z" />
<glyph unicode="~" horiz-adv-x="1075" d="M1018 787q-158 -131 -284 -131q-86 0 -256 82q-97 47 -142 47q-108 0 -279 -162v277q148 128 289 128q85 0 232 -70q119 -57 169 -57q47 0 95.5 25.5t175.5 135.5v-275z" />
<glyph unicode="&#xa1;" horiz-adv-x="553" d="M69 1100v324h378v-324h-378zM36 -195l66 1219h312l66 -1219h-444z" />
<glyph unicode="&#xa2;" horiz-adv-x="1059" d="M1004 922h-404v135q0 116 -12.5 146.5t-55.5 30.5q-41 0 -55 -26q-13 -29 -13 -137v-621q0 -107 12 -138.5t54 -31.5q47 0 68 42q19 44 19 172v146h387l1 -66q0 -237 -89 -364t-287 -172v-165h-186v165q-132 18 -231.5 98t-125.5 169.5t-26 283.5v298q0 204 24.5 300.5 t118 177t240.5 110.5v137h186v-137q99 -18 178.5 -66.5t125 -116.5t58.5 -140.5t13 -229.5z" />
<glyph unicode="&#xa3;" horiz-adv-x="1096" d="M999 1098h-362v147v23v19v15v12v33l-5 32q-2 16 -22.5 37t-51.5 21q-39 0 -65.5 -34t-26.5 -77q0 -60 44 -207q48 -170 48 -198h255v-276h-231q0 -270 -194 -409l45 6l54 5q36 0 92 -10l41 -4q38 0 63.5 24.5t25.5 132.5l-1 64h340l-1 -129q0 -142 -21 -206.5t-93.5 -107 t-184.5 -42.5q-70 0 -205 34q-64 16 -122.5 25t-103.5 9q-150 0 -245 -68v236q42 27 69 72.5t51 148t24 175.5l-1 44h-143v276h99q-84 159 -84 306q0 206 129 316q62 51 144.5 79t183.5 28q214 0 339.5 -111.5t125.5 -308.5q0 -59 -10 -132z" />
<glyph unicode="&#xa4;" horiz-adv-x="1123" d="M814 1061l132 133l140 -142l-131 -133q73 -123 73 -249q0 -135 -73 -254l131 -130l-140 -141l-132 129q-27 -17 -58 -31l-65 -25q-63 -18 -132 -18q-62 0 -127.5 18.5t-122.5 55.5l-130 -129l-143 141l132 130q-74 119 -74 254q0 129 74 249l-132 133l140 142l133 -133 q59 34 124 55l21 6q10 2 42 8q30 4 43 4.5t21 0.5h40q15 -3 31 -5t56 -14q64 -18 127 -55zM293 674q0 -117 80 -195.5t188 -78.5q111 0 189.5 78.5t78.5 188.5q0 111 -79 189.5t-189 78.5q-113 0 -190.5 -82t-77.5 -179z" />
<glyph unicode="&#xa5;" horiz-adv-x="969" d="M792 982h174v-172h-225l-67 -224h292v-171h-292v-415h-390v415h-282v171h282l-64 224h-218v172h168l-182 637h387l53 -280l21 -121l16 -102q12 -81 12 -134q33 255 117 637h387z" />
<glyph unicode="&#xa6;" horiz-adv-x="555" d="M169 1619h217v-815h-217v815zM169 550h217v-815h-217v815z" />
<glyph unicode="&#xa7;" horiz-adv-x="991" d="M877 1273h-319v25q0 47 -20.5 73.5t-62.5 26.5q-30 0 -45 -14.5t-15 -44.5t30 -66t162 -132q235 -170 291.5 -247t56.5 -165q0 -183 -217 -285q87 -90 129.5 -171t42.5 -152q0 -131 -111 -240.5t-306 -109.5q-165 0 -272 91q-53 46 -80.5 116.5t-27.5 167.5h320 q0 -129 79 -129q30 0 46.5 17.5t16.5 48.5q0 36 -30 68.5t-109 92.5q-223 159 -311.5 251.5t-88.5 198.5q0 163 216 289q-83 74 -126 155q-21 41 -32 81.5t-11 83.5q0 129 102 239.5t307 110.5q162 0 273.5 -83.5t111.5 -296.5zM382 869q-35 -37 -35 -75q0 -27 24 -54 q11 -14 43 -38l87 -64l108 -80q35 32 35 75q0 30 -34.5 64t-140.5 109z" />
<glyph unicode="&#xa8;" horiz-adv-x="683" d="M254 1761v-260h-261v260h261zM691 1761v-260h-261v260h261z" />
<glyph unicode="&#xa9;" horiz-adv-x="1605" d="M782 1532q349 0 567.5 -230t218.5 -536q0 -313 -225.5 -539.5t-540.5 -226.5q-317 0 -541.5 225.5t-224.5 540.5q0 218 113.5 401t292.5 274t340 91zM818 1381q-274 0 -452.5 -183.5t-178.5 -431.5q0 -250 180 -432.5t435 -182.5q252 0 433.5 181t181.5 434 q0 264 -187 439.5t-412 175.5zM988 653l161 -55q-81 -260 -339 -260q-174 0 -279 115.5t-105 308.5q0 198 106 313t274 115q253 0 343 -243l-162 -38q-51 139 -178 139q-99 0 -153 -75.5t-54 -199.5q0 -137 51 -214.5t146 -77.5q135 0 189 172z" />
<glyph unicode="&#xaa;" horiz-adv-x="665" d="M282 1362h-246q0 99 21 149.5t91 92.5t182 42q129 0 196 -41t86 -107q6 -25 9 -45.5t3 -52.5l4 -172v-394h-255v69q-24 -42 -63 -66q-19 -10 -41.5 -16t-47.5 -6q-90 0 -139 49q-21 24 -33.5 61t-12.5 88v65q0 96 33 129t183 87q105 36 109.5 56t4.5 43q0 65 -9.5 82 t-35.5 17q-27 0 -33 -12.5t-6 -79.5v-38zM366 1209q-56 -41 -70 -62q-13 -23 -13 -85q0 -55 8 -70t35 -15q26 0 33 14.5t7 67.5v150z" />
<glyph unicode="&#xab;" horiz-adv-x="760" d="M120 1238h237l-84 -543l84 -571h-237l-84 571zM487 1238h237l-85 -543l85 -571h-237l-85 571z" />
<glyph unicode="&#xac;" horiz-adv-x="1092" d="M64 1126h964v-634h-244v389h-720v245z" />
<glyph unicode="&#xad;" horiz-adv-x="603" d="M567 803v-279h-531v279h531z" />
<glyph unicode="&#xae;" horiz-adv-x="1605" d="M782 1532q342 0 564 -228t222 -538q0 -313 -225.5 -539.5t-540.5 -226.5q-317 0 -541.5 225.5t-224.5 540.5q0 223 117 408t297.5 271.5t331.5 86.5zM820 1383q-280 0 -457 -187q-87 -93 -131 -200t-44 -230q0 -254 181 -435t435 -181q252 0 433.5 180.5t181.5 435.5 q0 174 -89.5 320.5t-234 221.5t-275.5 75zM465 357v813h385q141 0 207 -66.5t66 -163.5q0 -93 -54 -150t-165 -78q47 -18 77.5 -50t95.5 -142l95 -163h-203l-68 131q-61 119 -107 159q-24 21 -53.5 32t-68.5 11h-43v-333h-164zM629 819h134q99 0 142.5 27.5t43.5 85.5 q0 54 -42 81t-127 27h-151v-221z" />
<glyph unicode="&#xaf;" horiz-adv-x="855" d="M398 295v-173h-796v173h796z" />
<glyph unicode="&#xb0;" horiz-adv-x="711" d="M36 1314q0 142 95 234.5t224 92.5q132 0 225.5 -94t93.5 -225q0 -132 -93.5 -225.5t-224.5 -93.5q-141 0 -230.5 97.5t-89.5 213.5zM202 1326q0 -65 45 -113q46 -44 108 -44q63 0 108 45t45 108t-45 108t-108 45q-65 0 -109 -48t-44 -101z" />
<glyph unicode="&#xb1;" horiz-adv-x="1092" d="M667 543h-244v355h-359v244h359v360h244v-360h361v-244h-361v-355zM64 423h964v-244h-964v244z" />
<glyph unicode="&#xb2;" horiz-adv-x="651" d="M592 938v-155h-556v128q243 335 292 417q45 78 45 120q0 60 -53 60q-29 0 -42 -16.5t-13 -69.5v-86h-229v37q0 86 18 140.5t83.5 95.5t171.5 41q147 0 226 -63t79 -162q0 -75 -43 -154q-12 -23 -26 -44.5t-39 -54.5q-39 -55 -112 -146l-69 -88h267z" />
<glyph unicode="&#xb3;" horiz-adv-x="668" d="M532 1263q44 -13 72 -53t28 -169q0 -170 -83.5 -222.5t-212.5 -52.5q-121 0 -189 34.5t-89.5 85.5t-21.5 171v56h255v-127q0 -52 6 -65t34 -13q27 0 36.5 17t9.5 94v54q0 66 -27.5 84t-123.5 18v134q108 0 129.5 12.5t21.5 72.5v48q0 44 -11 55t-32 11q-22 0 -34 -12 q-9 -12 -9 -60v-59h-255v62q0 124 67 167.5t210 43.5q178 0 243.5 -59t65.5 -170q0 -49 -15.5 -89.5t-74.5 -68.5z" />
<glyph unicode="&#xb4;" horiz-adv-x="683" d="M683 1772l-329 -271h-203l176 271h356z" />
<glyph unicode="&#xb5;" horiz-adv-x="965" d="M72 1327h324v-957q0 -141 78 -141q97 0 97 232v866h321v-1327h-306v123q-60 -144 -190 -144v-386h-324v1734z" />
<glyph unicode="&#xb6;" horiz-adv-x="1180" d="M673 -221h-243v1018q-394 44 -394 403q0 115 44.5 204t120.5 141q37 24 73 39.5t74 22.5q72 12 222 12h597v-261h-113v-1579h-237v1579h-144v-1579z" />
<glyph unicode="&#xb7;" horiz-adv-x="450" d="M377 972v-330h-305v330h305z" />
<glyph unicode="&#x2219;" horiz-adv-x="450" d="M377 972v-330h-305v330h305z" />
<glyph unicode="&#xb8;" horiz-adv-x="683" d="M378 12v-124q52 0 98 -35t46 -97q0 -76 -62 -132t-148 -56q-156 0 -199 158h148q14 -41 50 -41q27 0 43 15t16 45t-21 50q-22 16 -62 16l-26 -1v202h117z" />
<glyph unicode="&#xb9;" horiz-adv-x="501" d="M440 1636v-853h-255v457v23v18v14v11q0 40 -5 49q-3 14 -30 26l-40 7l-70 3h-28v110q180 33 278 135h150z" />
<glyph unicode="&#xba;" horiz-adv-x="675" d="M638 1345v-188q0 -125 -21.5 -191t-91 -108.5t-189.5 -42.5q-65 0 -109.5 8t-77.5 27q-61 36 -88 100q-25 67 -25 181v197q0 182 81.5 250t210.5 68q113 0 182.5 -38.5t98.5 -100.5t29 -162zM375 1405q0 58 -6 72.5t-32 14.5q-24 0 -32 -14q-6 -14 -6 -73v-353 q0 -53 6 -68.5t29 -15.5q27 0 34 14q7 18 7 62v361z" />
<glyph unicode="&#xbb;" horiz-adv-x="760" d="M639 1238l85 -543l-85 -571h-237l85 571l-85 543h237zM273 1238l84 -543l-84 -571h-237l84 571l-84 543h237z" />
<glyph unicode="&#xbc;" horiz-adv-x="1277" d="M1001 1650l-633 -1681h-154l635 1681h152zM440 1636v-853h-255v457v23v18v14v11q0 40 -5 49q-3 14 -30 26l-40 7l-70 3h-28v110q180 33 278 135h150zM1182 854v-550h71v-156h-71v-148h-256v148h-297v151l218 555h335zM926 304v335l-126 -335h126z" />
<glyph unicode="&#xbd;" horiz-adv-x="1321" d="M1001 1650l-633 -1681h-154l635 1681h152zM440 1636v-853h-255v457v23v18v14v11q0 40 -5 49q-3 14 -30 26l-40 7l-70 3h-28v110q180 33 278 135h150zM1262 155v-155h-556v128q244 336 293 419q22 39 33 68t11 51q0 60 -54 60q-27 0 -40.5 -16.5t-13.5 -70.5v-85h-229v36 q0 86 18 140.5t83.5 96t171.5 41.5q150 0 227.5 -63.5t77.5 -162.5q0 -72 -41.5 -151.5t-178.5 -247.5l-69 -88h267z" />
<glyph unicode="&#xbe;" horiz-adv-x="1416" d="M532 1263q44 -13 72 -53t28 -169q0 -170 -83.5 -222.5t-212.5 -52.5q-121 0 -189 34.5t-89.5 85.5t-21.5 171v56h255v-127q0 -52 6 -65t34 -13q27 0 36.5 17t9.5 94v54q0 66 -27.5 84t-123.5 18v134q108 0 129.5 12.5t21.5 72.5v48q0 44 -11 55t-32 11q-22 0 -34 -12 q-9 -12 -9 -60v-59h-255v62q0 124 67 167.5t210 43.5q178 0 243.5 -59t65.5 -170q0 -49 -15.5 -89.5t-74.5 -68.5zM1139 1650l-632 -1681h-154l634 1681h152zM1320 854v-550h71v-156h-71v-148h-255v148h-298v151l218 555h335zM1065 304v335l-127 -335h127z" />
<glyph unicode="&#xbf;" horiz-adv-x="1075" d="M586 1100v324h377v-324h-377zM586 327h404q0 -107 -9 -183t-27 -129q-33 -98 -148.5 -171t-288.5 -73q-127 0 -221 39.5t-149.5 110t-83 156.5t-27.5 259v198q0 134 24 216t109 144.5t198 62.5q153 0 219 -114v173h377v-445h-368q0 93 -66 93q-48 0 -64 -41 q-13 -46 -13 -198v-270q0 -85 12 -117t50 -32q43 0 59 40q13 46 13 183v98z" />
<glyph unicode="&#xc0;" horiz-adv-x="1032" d="M433 976h-379v106q0 103 7.5 167.5t27.5 117.5q36 101 143 177.5t278 76.5q203 0 307 -86t126 -216t22 -520v-799h-393v142q-35 -83 -95.5 -127t-139.5 -44q-105 0 -194 72.5t-89 311.5v131q0 178 45.5 242t234.5 153q197 92 212 125.5t15 132.5q0 127 -16 162 q-15 38 -51 38q-39 0 -51 -32q-10 -38 -10 -165v-166zM561 757q-94 -82 -112 -142q-8 -31 -12 -69.5t-4 -96.5q0 -124 13.5 -160t53.5 -36q36 0 48.5 28.5t12.5 148.5v327zM174 1966h356l176 -271h-203z" />
<glyph unicode="&#xc1;" horiz-adv-x="1032" d="M433 976h-379v106q0 103 7.5 167.5t27.5 117.5q36 101 143 177.5t278 76.5q203 0 307 -86t126 -216t22 -520v-799h-393v142q-35 -83 -95.5 -127t-139.5 -44q-105 0 -194 72.5t-89 311.5v131q0 178 45.5 242t234.5 153q197 92 212 125.5t15 132.5q0 127 -16 162 q-15 38 -51 38q-39 0 -51 -32q-10 -38 -10 -165v-166zM561 757q-94 -82 -112 -142q-8 -31 -12 -69.5t-4 -96.5q0 -124 13.5 -160t53.5 -36q36 0 48.5 28.5t12.5 148.5v327zM866 1966l-329 -271h-203l176 271h356z" />
<glyph unicode="&#xc2;" horiz-adv-x="1032" d="M433 976h-379v106q0 103 7.5 167.5t27.5 117.5q36 101 143 177.5t278 76.5q203 0 307 -86t126 -216t22 -520v-799h-393v142q-35 -83 -95.5 -127t-139.5 -44q-105 0 -194 72.5t-89 311.5v131q0 178 45.5 242t234.5 153q197 92 212 125.5t15 132.5q0 127 -16 162 q-15 38 -51 38q-39 0 -51 -32q-10 -38 -10 -165v-166zM561 757q-94 -82 -112 -142q-8 -31 -12 -69.5t-4 -96.5q0 -124 13.5 -160t53.5 -36q36 0 48.5 28.5t12.5 148.5v327zM524 1835l-118 -131h-280l257 282h282l241 -282h-271z" />
<glyph unicode="&#xc3;" horiz-adv-x="1032" d="M433 976h-379v106q0 103 7.5 167.5t27.5 117.5q36 101 143 177.5t278 76.5q203 0 307 -86t126 -216t22 -520v-799h-393v142q-35 -83 -95.5 -127t-139.5 -44q-105 0 -194 72.5t-89 311.5v131q0 178 45.5 242t234.5 153q197 92 212 125.5t15 132.5q0 127 -16 162 q-15 38 -51 38q-39 0 -51 -32q-10 -38 -10 -165v-166zM561 757q-94 -82 -112 -142q-8 -31 -12 -69.5t-4 -96.5q0 -124 13.5 -160t53.5 -36q36 0 48.5 28.5t12.5 148.5v327zM938 1912q-45 -101 -113 -141q-32 -20 -61 -30t-57 -10q-69 0 -153 33l-74 29q-73 29 -106 29 q-71 0 -122 -100l-158 105q110 194 248 194q40 0 76 -7t81 -25l62 -23q79 -29 106 -29q80 0 110 90z" />
<glyph unicode="&#xc4;" horiz-adv-x="1032" d="M433 976h-379v106q0 103 7.5 167.5t27.5 117.5q36 101 143 177.5t278 76.5q203 0 307 -86t126 -216t22 -520v-799h-393v142q-35 -83 -95.5 -127t-139.5 -44q-105 0 -194 72.5t-89 311.5v131q0 178 45.5 242t234.5 153q197 92 212 125.5t15 132.5q0 127 -16 162 q-15 38 -51 38q-39 0 -51 -32q-10 -38 -10 -165v-166zM561 757q-94 -82 -112 -142q-8 -31 -12 -69.5t-4 -96.5q0 -124 13.5 -160t53.5 -36q36 0 48.5 28.5t12.5 148.5v327zM428 1928v-260h-261v260h261zM865 1928v-260h-261v260h261z" />
<glyph unicode="&#xc5;" horiz-adv-x="1032" d="M433 976h-379v106q0 103 7.5 167.5t27.5 117.5q36 101 143 177.5t278 76.5q203 0 307 -86t126 -216t22 -520v-799h-393v142q-35 -83 -95.5 -127t-139.5 -44q-105 0 -194 72.5t-89 311.5v131q0 178 45.5 242t234.5 153q197 92 212 125.5t15 132.5q0 127 -16 162 q-15 38 -51 38q-39 0 -51 -32q-10 -38 -10 -165v-166zM561 757q-94 -82 -112 -142q-8 -31 -12 -69.5t-4 -96.5q0 -124 13.5 -160t53.5 -36q36 0 48.5 28.5t12.5 148.5v327zM516 2080q85 0 147.5 -60.5t62.5 -150.5q0 -86 -63 -148t-147 -62q-88 0 -149.5 62.5t-61.5 147.5 q0 87 62 149t149 62zM514 1948q-31 0 -56.5 -24.5t-25.5 -58.5q0 -31 24.5 -56.5t57.5 -25.5q31 0 57 24t26 58q0 33 -25 58t-58 25z" />
<glyph unicode="&#xc6;" horiz-adv-x="1543" d="M1482 768h-527v-322q0 -122 12 -157.5t56 -35.5q43 0 61 36q8 20 12 55t4 94v227h382v-161q0 -156 -39 -264.5t-144.5 -188.5t-254.5 -80q-139 0 -236 44.5t-157 138.5q-53 -89 -130 -137q-35 -21 -78.5 -33.5t-90.5 -12.5q-109 0 -180 53t-94.5 139t-23.5 270 q0 170 20 230t85 110q33 26 85 52.5t136 61t112 57t39.5 58.5t11.5 146q0 104 -12 147.5t-45 43.5q-32 0 -41.5 -33.5t-9.5 -177.5v-152h-379v118q0 128 15 208q6 37 25 76q9 20 19.5 37.5t26.5 37.5q54 74 141 121t219 47q73 0 144.5 -21.5t130.5 -64.5q43 41 106 63.5 t138 22.5q152 0 260.5 -78.5t154.5 -203.5t46 -366v-205zM1078 1027v144q0 112 -17 139q-15 29 -44 29q-33 0 -48 -32q-14 -34 -14 -136v-144h123zM551 748q-75 -66 -102.5 -122t-27.5 -204q0 -89 15 -129t57 -40q28 0 42.5 24.5t14.5 70.5l1 143v257z" />
<glyph unicode="&#xc7;" horiz-adv-x="1013" d="M546 -28v-34q49 0 96.5 -42t47.5 -117q0 -90 -62 -157t-148 -67q-155 0 -199 189h148q14 -50 50 -50q27 0 44 18q15 18 15 54q0 39 -21 60q-22 19 -62 19h-26v132q-151 23 -223.5 94.5t-111.5 187.5q-14 51 -24 139t-10 200v452q0 110 8 177q4 37 10 69t16 60 q33 103 144.5 184t270.5 81t269 -78.5t148.5 -205t38.5 -346.5h-381v184q0 97 -13 129q-12 35 -48 35q-32 0 -47 -30q-12 -29 -12 -134v-751q0 -84 18 -127.5t53 -43.5q39 0 54.5 43.5t15.5 169.5v189h360q0 -182 -10 -272q0 -44 -15.5 -92.5t-43.5 -99.5q-50 -95 -134 -154 q-76 -51 -216 -65z" />
<glyph unicode="&#xc8;" d="M987 768h-523v-344q0 -107 12 -139t51 -32q45 0 61 41q8 21 12 59l4 102v210h383v-118q0 -152 -15.5 -228.5t-72 -166t-146.5 -135.5t-218 -46q-127 0 -225.5 43.5t-153 121t-75.5 172t-21 270.5v465q0 210 46 329t153 184t248 65q85 0 155 -18.5t125 -59.5 q108 -73 154 -203t46 -361v-211zM582 1027v117q0 127 -11 161t-45 34q-42 0 -52 -32.5t-10 -162.5v-117h118zM182 1966h356l176 -271h-203z" />
<glyph unicode="&#xc9;" d="M987 768h-523v-344q0 -107 12 -139t51 -32q45 0 61 41q8 21 12 59l4 102v210h383v-118q0 -152 -15.5 -228.5t-72 -166t-146.5 -135.5t-218 -46q-127 0 -225.5 43.5t-153 121t-75.5 172t-21 270.5v465q0 210 46 329t153 184t248 65q85 0 155 -18.5t125 -59.5 q108 -73 154 -203t46 -361v-211zM582 1027v117q0 127 -11 161t-45 34q-42 0 -52 -32.5t-10 -162.5v-117h118zM865 1966l-329 -271h-203l176 271h356z" />
<glyph unicode="&#xca;" d="M987 768h-523v-344q0 -107 12 -139t51 -32q45 0 61 41q8 21 12 59l4 102v210h383v-118q0 -152 -15.5 -228.5t-72 -166t-146.5 -135.5t-218 -46q-127 0 -225.5 43.5t-153 121t-75.5 172t-21 270.5v465q0 210 46 329t153 184t248 65q85 0 155 -18.5t125 -59.5 q108 -73 154 -203t46 -361v-211zM582 1027v117q0 127 -11 161t-45 34q-42 0 -52 -32.5t-10 -162.5v-117h118zM531 1835l-118 -131h-280l257 282h282l241 -282h-271z" />
<glyph unicode="&#xcb;" d="M987 768h-523v-344q0 -107 12 -139t51 -32q45 0 61 41q8 21 12 59l4 102v210h383v-118q0 -152 -15.5 -228.5t-72 -166t-146.5 -135.5t-218 -46q-127 0 -225.5 43.5t-153 121t-75.5 172t-21 270.5v465q0 210 46 329t153 184t248 65q85 0 155 -18.5t125 -59.5 q108 -73 154 -203t46 -361v-211zM582 1027v117q0 127 -11 161t-45 34q-42 0 -52 -32.5t-10 -162.5v-117h118zM435 1937v-260h-261v260h261zM872 1937v-260h-261v260h261z" />
<glyph unicode="&#xcc;" horiz-adv-x="561" d="M489 1327v-1327h-416v1327h416zM-57 1687h356l176 -271h-203z" />
<glyph unicode="&#xcd;" horiz-adv-x="561" d="M488 1327v-1327h-416v1327h416zM625 1687l-329 -271h-203l176 271h356z" />
<glyph unicode="&#xce;" horiz-adv-x="561" d="M488 1327v-1327h-416v1327h416zM292 1547l-118 -131h-280l257 282h282l241 -282h-271z" />
<glyph unicode="&#xcf;" horiz-adv-x="561" d="M488 1327v-1327h-416v1327h416zM196 1676v-260h-261v260h261zM633 1676v-260h-261v260h261z" />
<glyph unicode="&#xd0;" d="M370 1619h245q30 -19 51 -40l161 40l30 -89l-114 -32q65 -75 128 -189q59 -108 88 -225q14 -59 21 -134t7 -175v-302q0 -169 -42.5 -274t-152 -164t-276.5 -59q-169 0 -274 56.5t-143.5 153t-38.5 308.5v292q0 175 34.5 271t122 165t198.5 69q100 0 168 -56 q-9 54 -27 104t-47 98l-192 -52l-30 91l167 46q-47 61 -84 97zM583 907q0 97 -11.5 123t-47.5 26q-30 0 -47 -30q-13 -36 -13 -106v-569q0 -85 15 -112.5t46 -27.5q28 0 43 27t15 124v545z" />
<glyph unicode="&#xd1;" horiz-adv-x="1071" d="M483 1592l-7 -146q42 87 106.5 131t147.5 44q103 0 169.5 -57.5t85.5 -149.5q5 -26 9.5 -55.5t4.5 -62.5q0 -29 2.5 -93.5t2.5 -86.5v-1116h-404v1103q0 161 -9 198.5t-50 37.5q-42 0 -53.5 -42t-11.5 -221v-1076h-404v1592h411zM948 1912q-45 -101 -113 -141 q-32 -20 -61 -30t-57 -10q-69 0 -153 33l-74 29q-73 29 -106 29q-71 0 -122 -100l-158 105q110 194 248 194q40 0 76 -7t81 -25l62 -23q79 -29 106 -29q80 0 110 90z" />
<glyph unicode="&#xd2;" d="M986 1033v-390q0 -213 -18 -315.5t-75.5 -186.5t-153.5 -129q-45 -20 -100 -30q-24 -5 -53 -8t-59 -3q-138 0 -229.5 35.5t-142 106t-73 176.5t-22.5 301v408q0 221 39 344.5t144.5 201t266.5 77.5q71 0 126.5 -11.5t106.5 -37.5q96 -45 149.5 -124t73.5 -165 q10 -42 15 -102t5 -148zM582 1153q0 125 -11 155.5t-47 30.5t-48 -32t-12 -154v-719q0 -110 12 -145.5t47 -35.5q34 0 46.5 31.5t12.5 134.5v734zM182 1966h356l176 -271h-203z" />
<glyph unicode="&#xd3;" d="M986 1033v-390q0 -213 -18 -315.5t-75.5 -186.5t-153.5 -129q-45 -20 -100 -30q-24 -5 -53 -8t-59 -3q-138 0 -229.5 35.5t-142 106t-73 176.5t-22.5 301v408q0 221 39 344.5t144.5 201t266.5 77.5q71 0 126.5 -11.5t106.5 -37.5q96 -45 149.5 -124t73.5 -165 q10 -42 15 -102t5 -148zM582 1153q0 125 -11 155.5t-47 30.5t-48 -32t-12 -154v-719q0 -110 12 -145.5t47 -35.5q34 0 46.5 31.5t12.5 134.5v734zM865 1966l-329 -271h-203l176 271h356z" />
<glyph unicode="&#xd4;" d="M986 1033v-390q0 -213 -18 -315.5t-75.5 -186.5t-153.5 -129q-45 -20 -100 -30q-24 -5 -53 -8t-59 -3q-138 0 -229.5 35.5t-142 106t-73 176.5t-22.5 301v408q0 221 39 344.5t144.5 201t266.5 77.5q71 0 126.5 -11.5t106.5 -37.5q96 -45 149.5 -124t73.5 -165 q10 -42 15 -102t5 -148zM582 1153q0 125 -11 155.5t-47 30.5t-48 -32t-12 -154v-719q0 -110 12 -145.5t47 -35.5q34 0 46.5 31.5t12.5 134.5v734zM531 1835l-118 -131h-280l257 282h282l241 -282h-271z" />
<glyph unicode="&#xd5;" d="M986 1033v-390q0 -213 -18 -315.5t-75.5 -186.5t-153.5 -129q-45 -20 -100 -30q-24 -5 -53 -8t-59 -3q-138 0 -229.5 35.5t-142 106t-73 176.5t-22.5 301v408q0 221 39 344.5t144.5 201t266.5 77.5q71 0 126.5 -11.5t106.5 -37.5q96 -45 149.5 -124t73.5 -165 q10 -42 15 -102t5 -148zM582 1153q0 125 -11 155.5t-47 30.5t-48 -32t-12 -154v-719q0 -110 12 -145.5t47 -35.5q34 0 46.5 31.5t12.5 134.5v734zM945 1912q-45 -101 -113 -141q-32 -20 -61 -30t-57 -10q-69 0 -153 33l-74 29q-73 29 -106 29q-71 0 -122 -100l-158 105 q110 194 248 194q40 0 76 -7t81 -25l62 -23q79 -29 106 -29q80 0 110 90z" />
<glyph unicode="&#xd6;" d="M986 1033v-390q0 -213 -18 -315.5t-75.5 -186.5t-153.5 -129q-45 -20 -100 -30q-24 -5 -53 -8t-59 -3q-138 0 -229.5 35.5t-142 106t-73 176.5t-22.5 301v408q0 221 39 344.5t144.5 201t266.5 77.5q71 0 126.5 -11.5t106.5 -37.5q96 -45 149.5 -124t73.5 -165 q10 -42 15 -102t5 -148zM582 1153q0 125 -11 155.5t-47 30.5t-48 -32t-12 -154v-719q0 -110 12 -145.5t47 -35.5q34 0 46.5 31.5t12.5 134.5v734zM435 1937v-260h-261v260h261zM872 1937v-260h-261v260h261z" />
<glyph unicode="&#xd7;" horiz-adv-x="1092" d="M74 1122l172 172l300 -299l299 299l173 -172l-299 -300l297 -296l-172 -173l-297 297l-298 -296l-172 172l297 296z" />
<glyph unicode="&#xd8;" d="M912 1417q36 -59 55 -136t19 -248v-390q0 -213 -18 -315.5t-76 -186.5t-152 -129q-46 -20 -101 -30q-25 -5 -53.5 -8t-58.5 -3q-114 0 -198 27q-40 12 -75 30q-30 17 -62 45l-31 -56l-79 61l45 83q-32 62 -49.5 152t-17.5 277v408q0 221 39 344.5t144.5 201t266.5 77.5 q57 0 100 -7q49 -6 89 -23q79 -26 146 -90l41 75l78 -62zM582 1002v151q0 125 -11 155.5t-47 30.5t-48 -32t-12 -154v-367zM464 577v-143q0 -110 12 -145.5t47 -35.5q34 0 46.5 31.5t12.5 134.5v375z" />
<glyph unicode="&#xd9;" horiz-adv-x="1070" d="M997 1592v-1592h-411l7 132q-41 -77 -102.5 -119t-142.5 -42q-46 0 -83 9.5t-68 29.5q-59 36 -87 99t-37 135l-5 102l-2 172v1074h404v-1083q0 -183 9 -219.5t52 -36.5q42 0 53 36q9 36 9 232v1071h404zM193 1966h356l176 -271h-203z" />
<glyph unicode="&#xda;" horiz-adv-x="1070" d="M997 1592v-1592h-411l7 132q-41 -77 -102.5 -119t-142.5 -42q-46 0 -83 9.5t-68 29.5q-59 36 -87 99t-37 135l-5 102l-2 172v1074h404v-1083q0 -183 9 -219.5t52 -36.5q42 0 53 36q9 36 9 232v1071h404zM876 1966l-329 -271h-203l176 271h356z" />
<glyph unicode="&#xdb;" horiz-adv-x="1070" d="M997 1592v-1592h-411l7 132q-41 -77 -102.5 -119t-142.5 -42q-46 0 -83 9.5t-68 29.5q-59 36 -87 99t-37 135l-5 102l-2 172v1074h404v-1083q0 -183 9 -219.5t52 -36.5q42 0 53 36q9 36 9 232v1071h404zM552 1835l-118 -131h-280l257 282h282l241 -282h-271z" />
<glyph unicode="&#xdc;" horiz-adv-x="1070" d="M997 1592v-1592h-411l7 132q-41 -77 -102.5 -119t-142.5 -42q-46 0 -83 9.5t-68 29.5q-59 36 -87 99t-37 135l-5 102l-2 172v1074h404v-1083q0 -183 9 -219.5t52 -36.5q42 0 53 36q9 36 9 232v1071h404zM447 1937v-260h-261v260h261zM884 1937v-260h-261v260h261z" />
<glyph unicode="&#xdd;" horiz-adv-x="918" d="M1008 1592l-116 -1152q-13 -140 -25 -231.5t-21 -141.5q-18 -99 -60 -163t-121 -96q-39 -15 -99.5 -23t-144.5 -8h-245v254q91 0 119.5 11t28.5 52q0 22 -25 166l-221 1332h367l132 -1074l64 1074h367zM814 1966l-329 -271h-203l176 271h356z" />
<glyph unicode="&#xde;" horiz-adv-x="1063" d="M476 1619v-409q107 141 261 141q93 0 161 -49.5t86 -117t18 -224.5v-559q0 -182 -21.5 -256.5t-88.5 -121.5t-160 -47q-150 0 -256 139v-304h-404v1808h404zM598 941q0 121 -9 148t-50 27q-37 0 -52 -30q-11 -31 -11 -145v-550q0 -120 12 -150t52 -30q39 0 48.5 30 t9.5 131v569z" />
<glyph unicode="&#xdf;" horiz-adv-x="1127" d="M902 1023q71 -33 114.5 -106t43.5 -285v-149q0 -145 -21 -220.5t-84 -142.5t-146 -93.5t-201 -26.5h-77v245h46q52 0 67 18q12 18 12 141v396q0 69 -15 93q-12 24 -64 31v246q20 0 41 12t21 82q0 74 -20.5 114t-61.5 40q-45 0 -64 -34q-17 -34 -17 -135v-1249h-404v1081 q0 122 6 203t20 131q27 95 136 166.5t301 71.5q237 0 370.5 -97t133.5 -270q0 -156 -137 -263z" />
<glyph unicode="&#xe0;" horiz-adv-x="1032" d="M433 976h-379v106q0 103 7.5 167.5t27.5 117.5q36 101 143 177.5t278 76.5q203 0 307 -86t126 -216t22 -520v-799h-393v142q-35 -83 -95.5 -127t-139.5 -44q-105 0 -194 72.5t-89 311.5v131q0 178 45.5 242t234.5 153q197 92 212 125.5t15 132.5q0 127 -16 162 q-15 38 -51 38q-39 0 -51 -32q-10 -38 -10 -165v-166zM561 757q-94 -82 -112 -142q-8 -31 -12 -69.5t-4 -96.5q0 -124 13.5 -160t53.5 -36q36 0 48.5 28.5t12.5 148.5v327zM174 1966h356l176 -271h-203z" />
<glyph unicode="&#xe1;" horiz-adv-x="1032" d="M433 976h-379v106q0 103 7.5 167.5t27.5 117.5q36 101 143 177.5t278 76.5q203 0 307 -86t126 -216t22 -520v-799h-393v142q-35 -83 -95.5 -127t-139.5 -44q-105 0 -194 72.5t-89 311.5v131q0 178 45.5 242t234.5 153q197 92 212 125.5t15 132.5q0 127 -16 162 q-15 38 -51 38q-39 0 -51 -32q-10 -38 -10 -165v-166zM561 757q-94 -82 -112 -142q-8 -31 -12 -69.5t-4 -96.5q0 -124 13.5 -160t53.5 -36q36 0 48.5 28.5t12.5 148.5v327zM866 1966l-329 -271h-203l176 271h356z" />
<glyph unicode="&#xe2;" horiz-adv-x="1032" d="M433 976h-379v106q0 103 7.5 167.5t27.5 117.5q36 101 143 177.5t278 76.5q203 0 307 -86t126 -216t22 -520v-799h-393v142q-35 -83 -95.5 -127t-139.5 -44q-105 0 -194 72.5t-89 311.5v131q0 178 45.5 242t234.5 153q197 92 212 125.5t15 132.5q0 127 -16 162 q-15 38 -51 38q-39 0 -51 -32q-10 -38 -10 -165v-166zM561 757q-94 -82 -112 -142q-8 -31 -12 -69.5t-4 -96.5q0 -124 13.5 -160t53.5 -36q36 0 48.5 28.5t12.5 148.5v327zM524 1835l-118 -131h-280l257 282h282l241 -282h-271z" />
<glyph unicode="&#xe3;" horiz-adv-x="1032" d="M433 976h-379v106q0 103 7.5 167.5t27.5 117.5q36 101 143 177.5t278 76.5q203 0 307 -86t126 -216t22 -520v-799h-393v142q-35 -83 -95.5 -127t-139.5 -44q-105 0 -194 72.5t-89 311.5v131q0 178 45.5 242t234.5 153q197 92 212 125.5t15 132.5q0 127 -16 162 q-15 38 -51 38q-39 0 -51 -32q-10 -38 -10 -165v-166zM561 757q-94 -82 -112 -142q-8 -31 -12 -69.5t-4 -96.5q0 -124 13.5 -160t53.5 -36q36 0 48.5 28.5t12.5 148.5v327zM938 1912q-45 -101 -113 -141q-32 -20 -61 -30t-57 -10q-69 0 -153 33l-74 29q-73 29 -106 29 q-71 0 -122 -100l-158 105q110 194 248 194q40 0 76 -7t81 -25l62 -23q79 -29 106 -29q80 0 110 90z" />
<glyph unicode="&#xe4;" horiz-adv-x="1032" d="M433 976h-379v106q0 103 7.5 167.5t27.5 117.5q36 101 143 177.5t278 76.5q203 0 307 -86t126 -216t22 -520v-799h-393v142q-35 -83 -95.5 -127t-139.5 -44q-105 0 -194 72.5t-89 311.5v131q0 178 45.5 242t234.5 153q197 92 212 125.5t15 132.5q0 127 -16 162 q-15 38 -51 38q-39 0 -51 -32q-10 -38 -10 -165v-166zM561 757q-94 -82 -112 -142q-8 -31 -12 -69.5t-4 -96.5q0 -124 13.5 -160t53.5 -36q36 0 48.5 28.5t12.5 148.5v327zM428 1928v-260h-261v260h261zM865 1928v-260h-261v260h261z" />
<glyph unicode="&#xe5;" horiz-adv-x="1032" d="M433 976h-379v106q0 103 7.5 167.5t27.5 117.5q36 101 143 177.5t278 76.5q203 0 307 -86t126 -216t22 -520v-799h-393v142q-35 -83 -95.5 -127t-139.5 -44q-105 0 -194 72.5t-89 311.5v131q0 178 45.5 242t234.5 153q197 92 212 125.5t15 132.5q0 127 -16 162 q-15 38 -51 38q-39 0 -51 -32q-10 -38 -10 -165v-166zM561 757q-94 -82 -112 -142q-8 -31 -12 -69.5t-4 -96.5q0 -124 13.5 -160t53.5 -36q36 0 48.5 28.5t12.5 148.5v327zM516 2080q85 0 147.5 -60.5t62.5 -150.5q0 -86 -63 -148t-147 -62q-88 0 -149.5 62.5t-61.5 147.5 q0 87 62 149t149 62zM514 1948q-31 0 -56.5 -24.5t-25.5 -58.5q0 -31 24.5 -56.5t57.5 -25.5q31 0 57 24t26 58q0 33 -25 58t-58 25z" />
<glyph unicode="&#xe6;" horiz-adv-x="1543" d="M1482 768h-527v-322q0 -122 12 -157.5t56 -35.5q43 0 61 36q8 20 12 55t4 94v227h382v-161q0 -156 -39 -264.5t-144.5 -188.5t-254.5 -80q-139 0 -236 44.5t-157 138.5q-53 -89 -130 -137q-35 -21 -78.5 -33.5t-90.5 -12.5q-109 0 -180 53t-94.5 139t-23.5 270 q0 170 20 230t85 110q33 26 85 52.5t136 61t112 57t39.5 58.5t11.5 146q0 104 -12 147.5t-45 43.5q-32 0 -41.5 -33.5t-9.5 -177.5v-152h-379v118q0 128 15 208q6 37 25 76q9 20 19.5 37.5t26.5 37.5q54 74 141 121t219 47q73 0 144.5 -21.5t130.5 -64.5q43 41 106 63.5 t138 22.5q152 0 260.5 -78.5t154.5 -203.5t46 -366v-205zM1078 1027v144q0 112 -17 139q-15 29 -44 29q-33 0 -48 -32q-14 -34 -14 -136v-144h123zM551 748q-75 -66 -102.5 -122t-27.5 -204q0 -89 15 -129t57 -40q28 0 42.5 24.5t14.5 70.5l1 143v257z" />
<glyph unicode="&#xe7;" horiz-adv-x="1013" d="M546 -28v-34q49 0 96.5 -42t47.5 -117q0 -90 -62 -157t-148 -67q-155 0 -199 189h148q14 -50 50 -50q27 0 44 18q15 18 15 54q0 39 -21 60q-22 19 -62 19h-26v132q-151 23 -223.5 94.5t-111.5 187.5q-14 51 -24 139t-10 200v452q0 110 8 177q4 37 10 69t16 60 q33 103 144.5 184t270.5 81t269 -78.5t148.5 -205t38.5 -346.5h-381v184q0 97 -13 129q-12 35 -48 35q-32 0 -47 -30q-12 -29 -12 -134v-751q0 -84 18 -127.5t53 -43.5q39 0 54.5 43.5t15.5 169.5v189h360q0 -182 -10 -272q0 -44 -15.5 -92.5t-43.5 -99.5q-50 -95 -134 -154 q-76 -51 -216 -65z" />
<glyph unicode="&#xe8;" d="M987 768h-523v-344q0 -107 12 -139t51 -32q45 0 61 41q8 21 12 59l4 102v210h383v-118q0 -152 -15.5 -228.5t-72 -166t-146.5 -135.5t-218 -46q-127 0 -225.5 43.5t-153 121t-75.5 172t-21 270.5v465q0 210 46 329t153 184t248 65q85 0 155 -18.5t125 -59.5 q108 -73 154 -203t46 -361v-211zM582 1027v117q0 127 -11 161t-45 34q-42 0 -52 -32.5t-10 -162.5v-117h118zM182 1966h356l176 -271h-203z" />
<glyph unicode="&#xe9;" d="M987 768h-523v-344q0 -107 12 -139t51 -32q45 0 61 41q8 21 12 59l4 102v210h383v-118q0 -152 -15.5 -228.5t-72 -166t-146.5 -135.5t-218 -46q-127 0 -225.5 43.5t-153 121t-75.5 172t-21 270.5v465q0 210 46 329t153 184t248 65q85 0 155 -18.5t125 -59.5 q108 -73 154 -203t46 -361v-211zM582 1027v117q0 127 -11 161t-45 34q-42 0 -52 -32.5t-10 -162.5v-117h118zM865 1966l-329 -271h-203l176 271h356z" />
<glyph unicode="&#xea;" d="M987 768h-523v-344q0 -107 12 -139t51 -32q45 0 61 41q8 21 12 59l4 102v210h383v-118q0 -152 -15.5 -228.5t-72 -166t-146.5 -135.5t-218 -46q-127 0 -225.5 43.5t-153 121t-75.5 172t-21 270.5v465q0 210 46 329t153 184t248 65q85 0 155 -18.5t125 -59.5 q108 -73 154 -203t46 -361v-211zM582 1027v117q0 127 -11 161t-45 34q-42 0 -52 -32.5t-10 -162.5v-117h118zM531 1835l-118 -131h-280l257 282h282l241 -282h-271z" />
<glyph unicode="&#xeb;" d="M987 768h-523v-344q0 -107 12 -139t51 -32q45 0 61 41q8 21 12 59l4 102v210h383v-118q0 -152 -15.5 -228.5t-72 -166t-146.5 -135.5t-218 -46q-127 0 -225.5 43.5t-153 121t-75.5 172t-21 270.5v465q0 210 46 329t153 184t248 65q85 0 155 -18.5t125 -59.5 q108 -73 154 -203t46 -361v-211zM582 1027v117q0 127 -11 161t-45 34q-42 0 -52 -32.5t-10 -162.5v-117h118zM435 1937v-260h-261v260h261zM872 1937v-260h-261v260h261z" />
<glyph unicode="&#xec;" horiz-adv-x="561" d="M489 1327v-1327h-416v1327h416zM-57 1687h356l176 -271h-203z" />
<glyph unicode="&#xed;" horiz-adv-x="561" d="M488 1327v-1327h-416v1327h416zM625 1687l-329 -271h-203l176 271h356z" />
<glyph unicode="&#xee;" horiz-adv-x="561" d="M488 1327v-1327h-416v1327h416zM292 1547l-118 -131h-280l257 282h282l241 -282h-271z" />
<glyph unicode="&#xef;" horiz-adv-x="561" d="M488 1327v-1327h-416v1327h416zM196 1676v-260h-261v260h261zM633 1676v-260h-261v260h261z" />
<glyph unicode="&#xf0;" d="M370 1619h245q30 -19 51 -40l161 40l30 -89l-114 -32q65 -75 128 -189q59 -108 88 -225q14 -59 21 -134t7 -175v-302q0 -169 -42.5 -274t-152 -164t-276.5 -59q-169 0 -274 56.5t-143.5 153t-38.5 308.5v292q0 175 34.5 271t122 165t198.5 69q100 0 168 -56 q-9 54 -27 104t-47 98l-192 -52l-30 91l167 46q-47 61 -84 97zM583 907q0 97 -11.5 123t-47.5 26q-30 0 -47 -30q-13 -36 -13 -106v-569q0 -85 15 -112.5t46 -27.5q28 0 43 27t15 124v545z" />
<glyph unicode="&#xf1;" horiz-adv-x="1071" d="M483 1592l-7 -146q42 87 106.5 131t147.5 44q103 0 169.5 -57.5t85.5 -149.5q5 -26 9.5 -55.5t4.5 -62.5q0 -29 2.5 -93.5t2.5 -86.5v-1116h-404v1103q0 161 -9 198.5t-50 37.5q-42 0 -53.5 -42t-11.5 -221v-1076h-404v1592h411zM948 1912q-45 -101 -113 -141 q-32 -20 -61 -30t-57 -10q-69 0 -153 33l-74 29q-73 29 -106 29q-71 0 -122 -100l-158 105q110 194 248 194q40 0 76 -7t81 -25l62 -23q79 -29 106 -29q80 0 110 90z" />
<glyph unicode="&#xf2;" d="M986 1033v-390q0 -213 -18 -315.5t-75.5 -186.5t-153.5 -129q-45 -20 -100 -30q-24 -5 -53 -8t-59 -3q-138 0 -229.5 35.5t-142 106t-73 176.5t-22.5 301v408q0 221 39 344.5t144.5 201t266.5 77.5q71 0 126.5 -11.5t106.5 -37.5q96 -45 149.5 -124t73.5 -165 q10 -42 15 -102t5 -148zM582 1153q0 125 -11 155.5t-47 30.5t-48 -32t-12 -154v-719q0 -110 12 -145.5t47 -35.5q34 0 46.5 31.5t12.5 134.5v734zM182 1966h356l176 -271h-203z" />
<glyph unicode="&#xf3;" d="M986 1033v-390q0 -213 -18 -315.5t-75.5 -186.5t-153.5 -129q-45 -20 -100 -30q-24 -5 -53 -8t-59 -3q-138 0 -229.5 35.5t-142 106t-73 176.5t-22.5 301v408q0 221 39 344.5t144.5 201t266.5 77.5q71 0 126.5 -11.5t106.5 -37.5q96 -45 149.5 -124t73.5 -165 q10 -42 15 -102t5 -148zM582 1153q0 125 -11 155.5t-47 30.5t-48 -32t-12 -154v-719q0 -110 12 -145.5t47 -35.5q34 0 46.5 31.5t12.5 134.5v734zM865 1966l-329 -271h-203l176 271h356z" />
<glyph unicode="&#xf4;" d="M986 1033v-390q0 -213 -18 -315.5t-75.5 -186.5t-153.5 -129q-45 -20 -100 -30q-24 -5 -53 -8t-59 -3q-138 0 -229.5 35.5t-142 106t-73 176.5t-22.5 301v408q0 221 39 344.5t144.5 201t266.5 77.5q71 0 126.5 -11.5t106.5 -37.5q96 -45 149.5 -124t73.5 -165 q10 -42 15 -102t5 -148zM582 1153q0 125 -11 155.5t-47 30.5t-48 -32t-12 -154v-719q0 -110 12 -145.5t47 -35.5q34 0 46.5 31.5t12.5 134.5v734zM531 1835l-118 -131h-280l257 282h282l241 -282h-271z" />
<glyph unicode="&#xf5;" d="M986 1033v-390q0 -213 -18 -315.5t-75.5 -186.5t-153.5 -129q-45 -20 -100 -30q-24 -5 -53 -8t-59 -3q-138 0 -229.5 35.5t-142 106t-73 176.5t-22.5 301v408q0 221 39 344.5t144.5 201t266.5 77.5q71 0 126.5 -11.5t106.5 -37.5q96 -45 149.5 -124t73.5 -165 q10 -42 15 -102t5 -148zM582 1153q0 125 -11 155.5t-47 30.5t-48 -32t-12 -154v-719q0 -110 12 -145.5t47 -35.5q34 0 46.5 31.5t12.5 134.5v734zM945 1912q-45 -101 -113 -141q-32 -20 -61 -30t-57 -10q-69 0 -153 33l-74 29q-73 29 -106 29q-71 0 -122 -100l-158 105 q110 194 248 194q40 0 76 -7t81 -25l62 -23q79 -29 106 -29q80 0 110 90z" />
<glyph unicode="&#xf6;" d="M986 1033v-390q0 -213 -18 -315.5t-75.5 -186.5t-153.5 -129q-45 -20 -100 -30q-24 -5 -53 -8t-59 -3q-138 0 -229.5 35.5t-142 106t-73 176.5t-22.5 301v408q0 221 39 344.5t144.5 201t266.5 77.5q71 0 126.5 -11.5t106.5 -37.5q96 -45 149.5 -124t73.5 -165 q10 -42 15 -102t5 -148zM582 1153q0 125 -11 155.5t-47 30.5t-48 -32t-12 -154v-719q0 -110 12 -145.5t47 -35.5q34 0 46.5 31.5t12.5 134.5v734zM435 1937v-260h-261v260h261zM872 1937v-260h-261v260h261z" />
<glyph unicode="&#xf7;" horiz-adv-x="1092" d="M404 1144q0 59 41 99q21 20 45 30q10 4 24.5 7t28.5 3q57 0 98 -41t41 -97q0 -57 -41 -98t-98 -41t-98 42.5t-41 95.5zM64 927h964v-236h-964v236zM404 476q0 61 42 103q21 20 45 30q10 4 24.5 7t28.5 3q57 0 98.5 -39.5t41.5 -100.5q0 -57 -41 -98t-99 -41 q-56 0 -100 42q-20 22 -30 45.5t-10 48.5z" />
<glyph unicode="&#xf8;" d="M912 1417q36 -59 55 -136t19 -248v-390q0 -213 -18 -315.5t-76 -186.5t-152 -129q-46 -20 -101 -30q-25 -5 -53.5 -8t-58.5 -3q-114 0 -198 27q-40 12 -75 30q-30 17 -62 45l-31 -56l-79 61l45 83q-32 62 -49.5 152t-17.5 277v408q0 221 39 344.5t144.5 201t266.5 77.5 q57 0 100 -7q49 -6 89 -23q79 -26 146 -90l41 75l78 -62zM582 1002v151q0 125 -11 155.5t-47 30.5t-48 -32t-12 -154v-367zM464 577v-143q0 -110 12 -145.5t47 -35.5q34 0 46.5 31.5t12.5 134.5v375z" />
<glyph unicode="&#xf9;" horiz-adv-x="1070" d="M997 1592v-1592h-411l7 132q-41 -77 -102.5 -119t-142.5 -42q-46 0 -83 9.5t-68 29.5q-59 36 -87 99t-37 135l-5 102l-2 172v1074h404v-1083q0 -183 9 -219.5t52 -36.5q42 0 53 36q9 36 9 232v1071h404zM193 1966h356l176 -271h-203z" />
<glyph unicode="&#xfa;" horiz-adv-x="1070" d="M997 1592v-1592h-411l7 132q-41 -77 -102.5 -119t-142.5 -42q-46 0 -83 9.5t-68 29.5q-59 36 -87 99t-37 135l-5 102l-2 172v1074h404v-1083q0 -183 9 -219.5t52 -36.5q42 0 53 36q9 36 9 232v1071h404zM876 1966l-329 -271h-203l176 271h356z" />
<glyph unicode="&#xfb;" horiz-adv-x="1070" d="M997 1592v-1592h-411l7 132q-41 -77 -102.5 -119t-142.5 -42q-46 0 -83 9.5t-68 29.5q-59 36 -87 99t-37 135l-5 102l-2 172v1074h404v-1083q0 -183 9 -219.5t52 -36.5q42 0 53 36q9 36 9 232v1071h404zM552 1835l-118 -131h-280l257 282h282l241 -282h-271z" />
<glyph unicode="&#xfc;" horiz-adv-x="1070" d="M997 1592v-1592h-411l7 132q-41 -77 -102.5 -119t-142.5 -42q-46 0 -83 9.5t-68 29.5q-59 36 -87 99t-37 135l-5 102l-2 172v1074h404v-1083q0 -183 9 -219.5t52 -36.5q42 0 53 36q9 36 9 232v1071h404zM447 1937v-260h-261v260h261zM884 1937v-260h-261v260h261z" />
<glyph unicode="&#xfd;" horiz-adv-x="918" d="M1008 1592l-116 -1152q-13 -140 -25 -231.5t-21 -141.5q-18 -99 -60 -163t-121 -96q-39 -15 -99.5 -23t-144.5 -8h-245v254q91 0 119.5 11t28.5 52q0 22 -25 166l-221 1332h367l132 -1074l64 1074h367zM814 1966l-329 -271h-203l176 271h356z" />
<glyph unicode="&#xfe;" horiz-adv-x="1063" d="M476 1619v-409q107 141 261 141q93 0 161 -49.5t86 -117t18 -224.5v-559q0 -182 -21.5 -256.5t-88.5 -121.5t-160 -47q-150 0 -256 139v-304h-404v1808h404zM598 941q0 121 -9 148t-50 27q-37 0 -52 -30q-11 -31 -11 -145v-550q0 -120 12 -150t52 -30q39 0 48.5 30 t9.5 131v569z" />
<glyph unicode="&#xff;" horiz-adv-x="918" d="M1008 1592l-116 -1152q-13 -140 -25 -231.5t-21 -141.5q-18 -99 -60 -163t-121 -96q-39 -15 -99.5 -23t-144.5 -8h-245v254q91 0 119.5 11t28.5 52q0 22 -25 166l-221 1332h367l132 -1074l64 1074h367zM385 1946v-260h-261v260h261zM822 1946v-260h-261v260h261z" />
<glyph unicode="&#x131;" horiz-adv-x="561" d="M488 1327v-1327h-416v1327h416z" />
<glyph unicode="&#x152;" horiz-adv-x="1410" d="M1339 1619v-324h-284v-307h271v-308h-271v-356h318v-324h-633q-145 -17 -189 -17q-125 0 -233 45t-160 114t-70 145q-7 36 -8 43q-4 26 -4 53l-4 145v529l3 157q0 31 2.5 54.5t8.5 52.5q14 84 70.5 155t158.5 115.5t243 44.5h34q14 0 53 -4q19 0 44 -3.5t54 -9.5h596z M634 1110l-1 74l-2 61q0 117 -70 117q-39 0 -54 -28q-13 -29 -13 -91l-1 -73v-649q0 -190 10.5 -227t56.5 -37q44 0 59 43.5t15 201.5v608z" />
<glyph unicode="&#x153;" horiz-adv-x="1567" d="M1506 640h-520v-297q0 -78 12 -107q13 -25 49 -25q41 0 59 42t18 137v164h382v-131q0 -135 -42 -225t-150.5 -156t-258.5 -66q-81 0 -148 15.5t-125 46.5q-51 -29 -120 -46q-35 -8 -67 -12t-70 -4q-135 0 -233 42t-149.5 108t-68.5 137q-14 73 -14 232v290q0 212 27 308 t138 177t284 81q81 0 145 -20q66 -18 128 -60q49 38 116.5 59t144.5 21q143 0 264 -66.5t160 -175.5t39 -278v-191zM582 925q0 132 -11 161.5t-50 29.5q-33 0 -46 -29q-5 -14 -8 -44.5t-3 -77.5v-578q0 -123 9 -149.5t48 -26.5q36 0 48.5 29.5t12.5 132.5v552zM1102 855v142 q0 83 -18.5 101t-40.5 18q-33 0 -45 -21.5t-12 -97.5v-142h116z" />
<glyph unicode="&#x178;" horiz-adv-x="918" d="M1008 1592l-116 -1152q-13 -140 -25 -231.5t-21 -141.5q-18 -99 -60 -163t-121 -96q-39 -15 -99.5 -23t-144.5 -8h-245v254q91 0 119.5 11t28.5 52q0 22 -25 166l-221 1332h367l132 -1074l64 1074h367zM385 1946v-260h-261v260h261zM822 1946v-260h-261v260h261z" />
<glyph unicode="&#x2c6;" horiz-adv-x="683" d="M350 1632l-118 -131h-280l257 282h282l241 -282h-271z" />
<glyph unicode="&#x2c9;" horiz-adv-x="683" d="M739 1674v-173h-796v173h796z" />
<glyph unicode="&#x2da;" horiz-adv-x="683" d="M342 1922q85 0 147.5 -60.5t62.5 -150.5q0 -86 -63 -148t-147 -62q-88 0 -149.5 62.5t-61.5 147.5q0 87 62 149t149 62zM340 1790q-31 0 -56.5 -24.5t-25.5 -58.5q0 -31 24.5 -56.5t57.5 -25.5q31 0 57 24t26 58q0 33 -25 58t-58 25z" />
<glyph unicode="&#x2dc;" horiz-adv-x="683" d="M763 1691q-45 -101 -113 -141q-32 -20 -61 -30t-57 -10q-69 0 -153 33l-74 29q-73 29 -106 29q-71 0 -122 -100l-158 105q110 194 248 194q40 0 76 -7t81 -25l62 -23q79 -29 106 -29q80 0 110 90z" />
<glyph unicode="&#x2000;" horiz-adv-x="1040" />
<glyph unicode="&#x2001;" horiz-adv-x="2080" />
<glyph unicode="&#x2002;" horiz-adv-x="1040" />
<glyph unicode="&#x2003;" horiz-adv-x="2080" />
<glyph unicode="&#x2004;" horiz-adv-x="693" />
<glyph unicode="&#x2005;" horiz-adv-x="520" />
<glyph unicode="&#x2006;" horiz-adv-x="346" />
<glyph unicode="&#x2007;" horiz-adv-x="346" />
<glyph unicode="&#x2008;" horiz-adv-x="260" />
<glyph unicode="&#x2009;" horiz-adv-x="416" />
<glyph unicode="&#x200a;" horiz-adv-x="115" />
<glyph unicode="&#x2010;" horiz-adv-x="603" d="M567 803v-279h-531v279h531z" />
<glyph unicode="&#x2011;" horiz-adv-x="603" d="M567 803v-279h-531v279h531z" />
<glyph unicode="&#x2012;" horiz-adv-x="603" d="M567 803v-279h-531v279h531z" />
<glyph unicode="&#x2013;" horiz-adv-x="1024" d="M-12 788h1048v-249h-1048v249z" />
<glyph unicode="&#x2014;" horiz-adv-x="2048" d="M-12 788h2072v-249h-2072v249z" />
<glyph unicode="&#x2018;" horiz-adv-x="344" d="M36 1095v145q0 112 27 185t92.5 124.5t151.5 69.5v-116q-57 -33 -67 -91h67v-317h-271z" />
<glyph unicode="&#x2019;" horiz-adv-x="344" d="M307 1619v-145q0 -111 -27 -184.5t-92 -123.5t-152 -71v117q57 31 68 90h-68v317h271z" />
<glyph unicode="&#x201a;" horiz-adv-x="344" d="M307 317v-145q0 -112 -27 -184.5t-92.5 -124.5t-151.5 -70v116q57 31 68 91h-68v317h271z" />
<glyph unicode="&#x201c;" horiz-adv-x="706" d="M398 1095v145q0 112 27 185t92.5 124.5t151.5 69.5v-116q-57 -33 -67 -91h67v-317h-271zM36 1095v145q0 112 27 185t92.5 124.5t151.5 69.5v-116q-57 -33 -67 -91h67v-317h-271z" />
<glyph unicode="&#x201d;" horiz-adv-x="706" d="M669 1619v-145q0 -111 -27 -184.5t-92 -123.5t-152 -71v117q56 33 67 90h-67v317h271zM307 1619v-145q0 -111 -27 -184.5t-92 -123.5t-152 -71v117q57 31 68 90h-68v317h271z" />
<glyph unicode="&#x201e;" horiz-adv-x="706" d="M669 317v-145q0 -112 -27 -184.5t-92.5 -124.5t-151.5 -70v116q57 33 67 91h-67v317h271zM307 317v-145q0 -112 -27 -184.5t-92.5 -124.5t-151.5 -70v116q57 31 68 91h-68v317h271z" />
<glyph unicode="&#x2022;" horiz-adv-x="712" d="M651 817q0 -130 -88 -216.5t-207 -86.5q-123 0 -209.5 87.5t-86.5 208.5q0 118 87 207q44 44 95 66t113 22q128 0 212 -90.5t84 -197.5z" />
<glyph unicode="&#x2026;" horiz-adv-x="1133" d="M341 330v-330h-305v330h305zM1097 330v-330h-305v330h305zM719 330v-330h-305v330h305z" />
<glyph unicode="&#x202f;" horiz-adv-x="416" />
<glyph unicode="&#x2039;" horiz-adv-x="405" d="M123 1257h245l-87 -561l87 -592h-245l-87 592z" />
<glyph unicode="&#x203a;" horiz-adv-x="405" d="M281 1257l87 -561l-87 -592h-245l87 592l-87 561h245z" />
<glyph unicode="&#x205f;" horiz-adv-x="520" />
<glyph unicode="&#x2122;" horiz-adv-x="1603" d="M265 800v677h-253v142h665v-142h-246v-677h-166zM738 800v819h259l149 -564l149 564h260v-819h-158v653l-177 -653h-150l-176 653v-653h-156z" />
<glyph unicode="&#xe000;" horiz-adv-x="1600" d="M0 1600h1600v-1600h-1600v1600z" />
<glyph unicode="&#xfb01;" horiz-adv-x="1272" d="M1199 1619v-211h-416v211h416zM1199 1327v-1327h-416v1327h416zM641 1619v-205q-123 0 -146.5 -11.5t-23.5 -65.5v-42h170v-210h-96v-1085h-404v1085h-83v210h83q0 128 9 174.5t43.5 78.5t99.5 52q32 9 81.5 14t118.5 5h148z" />
<glyph unicode="&#xfb02;" horiz-adv-x="1548" d="M1216 1619v-1295h256v-324h-677v1619h421zM641 1619v-205q-123 0 -146.5 -11.5t-23.5 -65.5v-42h170v-210h-96v-1085h-404v1085h-83v210h83q0 128 9 174.5t43.5 78.5t99.5 52q32 9 81.5 14t118.5 5h148z" />
<glyph unicode="&#xfb03;" horiz-adv-x="1983" d="M1910 1619v-211h-416v211h416zM1910 1327v-1327h-416v1327h416zM1352 1619v-205q-123 0 -146.5 -11.5t-23.5 -65.5v-42h170v-210h-96v-1085h-404v1085h-83v210h83q0 128 9 174.5t43.5 78.5t99.5 52q32 9 81.5 14t118.5 5h148zM641 1619v-205q-123 0 -146.5 -11.5 t-23.5 -65.5v-42h170v-210h-96v-1085h-404v1085h-83v210h83q0 128 9 174.5t43.5 78.5t99.5 52q32 9 81.5 14t118.5 5h148z" />
<glyph unicode="&#xfb04;" horiz-adv-x="2259" d="M1927 1619v-1295h256v-324h-677v1619h421zM1352 1619v-205q-123 0 -146.5 -11.5t-23.5 -65.5v-42h170v-210h-96v-1085h-404v1085h-83v210h83q0 128 9 174.5t43.5 78.5t99.5 52q32 9 81.5 14t118.5 5h148zM641 1619v-205q-123 0 -146.5 -11.5t-23.5 -65.5v-42h170v-210 h-96v-1085h-404v1085h-83v210h83q0 128 9 174.5t43.5 78.5t99.5 52q32 9 81.5 14t118.5 5h148z" />
</font>
</defs>
</svg>
